<svg width="70" height="70" viewBox="0 0 70 70" fill="none" xmlns="http://www.w3.org/2000/svg">
<path d="M18.6 19.768V19H50.6V19.768H18.6ZM18.6 27.576V26.808H50.6V27.576H18.6ZM18.6 35.384V34.616H50.6V35.384H18.6ZM18.6 43.192V42.424H50.6V43.192H18.6ZM18.6 51V50.232H50.6V51H18.6Z" fill="white"/>
<path d="M19.6 46.68C19.6 45.8907 19.888 45.1973 20.464 44.6C21.04 44.0027 21.8187 43.5333 22.8 43.192C23.8027 42.8507 24.9013 42.68 26.096 42.68C27.312 42.68 28.432 42.8507 29.456 43.192C30.48 43.512 31.3013 43.9707 31.92 44.568C32.5387 45.1653 32.848 45.8693 32.848 46.68C32.848 47.512 32.5493 48.2373 31.952 48.856C31.3547 49.4533 30.5547 49.9227 29.552 50.264C28.5707 50.584 27.4827 50.744 26.288 50.744C25.0933 50.744 23.984 50.584 22.96 50.264C21.9573 49.944 21.1467 49.4853 20.528 48.888C19.9093 48.2693 19.6 47.5333 19.6 46.68ZM26.96 50.104C27.6853 50.104 28.176 49.8373 28.432 49.304C28.7093 48.7707 28.848 48.1413 28.848 47.416C28.848 46.6693 28.688 45.9867 28.368 45.368C28.0693 44.7493 27.664 44.2587 27.152 43.896C26.64 43.512 26.064 43.32 25.424 43.32C24.6987 43.32 24.208 43.5867 23.952 44.12C23.7173 44.6533 23.6 45.2827 23.6 46.008C23.6 46.7333 23.7493 47.4053 24.048 48.024C24.3467 48.6427 24.7413 49.144 25.232 49.528C25.744 49.912 26.32 50.104 26.96 50.104Z" fill="white"/>
<path d="M36.6 31.18C36.6 30.3907 36.888 29.6973 37.464 29.1C38.04 28.5027 38.8187 28.0333 39.8 27.692C40.8027 27.3507 41.9013 27.18 43.096 27.18C44.312 27.18 45.432 27.3507 46.456 27.692C47.48 28.012 48.3013 28.4707 48.92 29.068C49.5387 29.6653 49.848 30.3693 49.848 31.18C49.848 32.012 49.5493 32.7373 48.952 33.356C48.3547 33.9533 47.5547 34.4227 46.552 34.764C45.5707 35.084 44.4827 35.244 43.288 35.244C42.0933 35.244 40.984 35.084 39.96 34.764C38.9573 34.444 38.1467 33.9853 37.528 33.388C36.9093 32.7693 36.6 32.0333 36.6 31.18ZM43.96 34.604C44.6853 34.604 45.176 34.3373 45.432 33.804C45.7093 33.2707 45.848 32.6413 45.848 31.916C45.848 31.1693 45.688 30.4867 45.368 29.868C45.0693 29.2493 44.664 28.7587 44.152 28.396C43.64 28.012 43.064 27.82 42.424 27.82C41.6987 27.82 41.208 28.0867 40.952 28.62C40.7173 29.1533 40.6 29.7827 40.6 30.508C40.6 31.2333 40.7493 31.9053 41.048 32.524C41.3467 33.1427 41.7413 33.644 42.232 34.028C42.744 34.412 43.32 34.604 43.96 34.604Z" fill="white"/>
</svg>
