<svg width="70" height="70" viewBox="0 0 70 70" fill="none" xmlns="http://www.w3.org/2000/svg">
<path d="M22.076 39.288L24.316 33.048C24.4013 32.8133 24.444 32.5787 24.444 32.344C24.444 32.088 24.348 31.96 24.156 31.96C23.7933 31.96 23.356 32.28 22.844 32.92C22.3533 33.5387 21.9267 34.4133 21.564 35.544H20.668C21.2867 33.7733 21.9907 32.5253 22.78 31.8C23.5693 31.0747 24.4227 30.712 25.34 30.712C25.7667 30.712 26.0973 30.808 26.332 31C26.588 31.192 26.716 31.512 26.716 31.96C27.0147 31.5973 27.388 31.2987 27.836 31.064C28.284 30.8293 28.7853 30.712 29.34 30.712C29.7453 30.712 30.0973 30.8187 30.396 31.032C30.716 31.224 30.876 31.5333 30.876 31.96C31.2387 31.4907 31.6653 31.1707 32.156 31C32.6467 30.808 33.0627 30.712 33.404 30.712C33.852 30.712 34.2147 30.7973 34.492 30.968C34.7907 31.1387 34.94 31.4373 34.94 31.864C34.94 32.0133 34.9187 32.1947 34.876 32.408C34.8333 32.6213 34.7907 32.7707 34.748 32.856L33.34 37.08C33.276 37.272 33.212 37.464 33.148 37.656C33.1053 37.848 33.084 38.0293 33.084 38.2C33.084 38.52 33.212 38.68 33.468 38.68C33.7453 38.68 34.076 38.4027 34.46 37.848C34.652 37.5707 34.8547 37.2507 35.068 36.888C35.2813 36.5253 35.4947 36.1093 35.708 35.64L36.476 35.96C35.9 37.2613 35.3133 38.232 34.716 38.872C34.14 39.4907 33.404 39.8 32.508 39.8C31.9107 39.8 31.4413 39.672 31.1 39.416C30.7587 39.1387 30.588 38.7333 30.588 38.2C30.588 37.9013 30.652 37.528 30.78 37.08C30.908 36.6107 31.0147 36.2693 31.1 36.056L32.188 33.016C32.2947 32.696 32.348 32.4933 32.348 32.408C32.348 32.1093 32.2093 31.96 31.932 31.96C31.676 31.96 31.452 32.0987 31.26 32.376C31.068 32.6533 30.8547 33.112 30.62 33.752L28.54 39.288H25.948L28.316 32.856C28.3587 32.6427 28.38 32.4933 28.38 32.408C28.38 32.1093 28.2413 31.96 27.964 31.96C27.5587 31.96 27.2387 32.2907 27.004 32.952L24.7 39.288H22.076ZM36.1972 35.544H35.3012C36.1119 33.7947 36.8906 32.5573 37.6372 31.832C38.3839 31.0853 39.2266 30.712 40.1652 30.712C40.7199 30.712 41.1253 30.8293 41.3812 31.064C41.6586 31.2773 41.8186 31.5547 41.8612 31.896C42.0959 31.6613 42.4373 31.4053 42.8853 31.128C43.3333 30.8507 43.8666 30.712 44.4853 30.712C45.4453 30.712 46.1386 31.032 46.5653 31.672C47.0133 32.2907 47.2373 33.08 47.2373 34.04C47.2373 34.9787 47.0026 35.896 46.5332 36.792C46.0639 37.6667 45.4453 38.392 44.6772 38.968C43.9306 39.5227 43.1199 39.8 42.2452 39.8C41.8186 39.8 41.4132 39.7147 41.0293 39.544C40.6666 39.3733 40.3679 39.0747 40.1332 38.648L38.6612 42.84C38.5546 43.1173 38.5012 43.3413 38.5012 43.512C38.5012 43.704 38.6826 43.8 39.0452 43.8H40.4212V44.792H33.3172V43.8H34.5972C35.0026 43.8 35.2799 43.7253 35.4292 43.576C35.5786 43.4267 35.7279 43.16 35.8772 42.776L39.3652 33.112C39.4932 32.7493 39.5572 32.4933 39.5572 32.344C39.5572 32.0667 39.4399 31.928 39.2052 31.928C38.8852 31.928 38.4906 32.1733 38.0212 32.664C37.5519 33.1547 37.1146 33.7947 36.7092 34.584L36.1972 35.544ZM40.8052 37.528C40.8052 38.36 41.0612 38.776 41.5732 38.776C41.9146 38.776 42.2559 38.552 42.5972 38.104C42.9386 37.656 43.2586 37.112 43.5573 36.472C43.8559 35.8107 44.0906 35.1493 44.2613 34.488C44.4532 33.8267 44.5492 33.2827 44.5492 32.856C44.5492 32.152 44.3039 31.8 43.8133 31.8C43.4079 31.8 43.0133 31.9813 42.6293 32.344C42.2666 32.7067 41.9466 33.1867 41.6693 33.784C41.4132 34.36 41.1999 34.9787 41.0293 35.64C40.8799 36.3013 40.8052 36.9307 40.8052 37.528Z" fill="white"/>
</svg>
