<svg width="79" height="120" viewBox="0 0 79 120" fill="none" xmlns="http://www.w3.org/2000/svg">
<path d="M24.2084 13.1181L36.2895 23.8259C34.5801 26.6483 33.3014 29.0562 32.4533 31.0497C31.6053 33.0432 31.3294 34.9668 31.6256 36.8206C31.8747 38.3795 32.6429 39.9419 33.9301 41.5077C35.2106 43.0314 37.155 44.9243 39.7633 47.1864L38.9743 48.7383C36.932 47.8549 35.1103 47.5411 33.5093 47.7969C32.3296 47.9854 31.5088 48.5271 31.0468 49.4218C30.5782 50.2745 30.4314 51.2485 30.6064 52.3439C30.8219 53.6922 31.3011 54.9334 32.044 56.0677C32.8224 57.1532 33.7836 58.1662 34.9277 59.1068L34.298 60.4388C31.0543 58.7968 28.5992 57.2231 26.9328 55.7179C25.2664 54.2127 24.2716 52.4489 23.9484 50.4266C23.6589 48.6149 24.0156 47.1968 25.0185 46.1724C26.0215 45.148 27.3234 44.5078 28.9244 44.252C30.1884 44.05 31.909 44.2719 34.0862 44.9178L34.066 44.7914L22.2631 33.3911C25.9193 28.9613 27.4881 25.1243 26.9697 21.8801C26.559 19.3101 24.7327 16.5342 21.4909 13.5524L24.2084 13.1181Z" fill="white"/>
<path d="M32.7613 112.349L42.8739 92.1254C41.8419 92.7538 40.7281 93.1277 39.5325 93.2471C38.3789 93.3745 37.2572 93.3343 36.1675 93.1264C34.3654 92.7826 32.9485 92.0128 31.917 90.817C30.8854 89.6212 30.5416 88.1222 30.8854 86.3201C31.1012 85.1885 31.7082 84.2835 32.7063 83.6052C33.7045 82.9269 34.8531 82.7117 36.1524 82.9595C37.3678 83.1914 38.2767 83.7774 38.8792 84.7176C39.5316 85.6239 39.7339 86.7267 39.4861 88.0259C39.3102 88.948 38.9447 89.7253 38.3897 90.3578C38.3417 90.6093 38.5692 90.783 39.0721 90.8789C40.7905 91.2067 42.6089 90.5545 44.5274 88.9225L50.075 77.6015C49.043 78.2299 47.9292 78.6038 46.7336 78.7232C45.58 78.8506 44.4583 78.8104 43.3686 78.6025C41.5664 78.2587 40.1496 77.4889 39.1181 76.2931C38.0865 75.0973 37.7427 73.5983 38.0865 71.7962C38.3183 70.5808 38.9293 69.6549 39.9194 69.0184C40.9095 68.382 42.0542 68.1878 43.3535 68.4356C44.6108 68.6755 45.5407 69.2655 46.1432 70.2057C46.7457 71.1459 46.927 72.2447 46.6872 73.502C46.6072 73.9211 46.4604 74.3492 46.2467 74.7862C46.041 75.1814 45.8224 75.5306 45.5908 75.8339C45.5428 76.0854 45.7703 76.2591 46.2732 76.355C47.9916 76.6828 49.785 76.0476 51.6536 74.4494L57.5846 62.4849C56.5526 63.1133 55.4388 63.4872 54.2432 63.6066C53.0896 63.734 51.9679 63.6938 50.8782 63.4859C49.0761 63.1422 47.6592 62.3724 46.6277 61.1766C45.5962 59.9808 45.2523 58.4818 45.5961 56.6796C45.8279 55.4642 46.4389 54.5383 47.429 53.9019C48.4192 53.2655 49.5638 53.0712 50.8631 53.319C52.1204 53.5589 53.0503 54.1489 53.6528 55.0891C54.2553 56.0293 54.4366 57.1281 54.1968 58.3854C54.1168 58.8045 53.97 59.2326 53.7563 59.6697C53.5506 60.0648 53.332 60.414 53.1004 60.7173C53.0524 60.9688 53.2799 61.1425 53.7828 61.2384C56.046 61.6701 58.5901 60.2877 61.4152 57.0911L62.5468 57.307L35.0245 112.78L32.7613 112.349Z" fill="white"/>
</svg>
