<svg width="80" height="60" viewBox="0 0 80 60" fill="none" xmlns="http://www.w3.org/2000/svg">
<path d="M11.6 16.768V16H43.6V16.768H11.6ZM11.6 24.576V23.808H43.6V24.576H11.6ZM11.6 32.384V31.616H43.6V32.384H11.6ZM11.6 40.192V39.424H43.6V40.192H11.6ZM11.6 48V47.232H43.6V48H11.6ZM36.7875 16.768V16H68.7875V16.768H36.7875ZM36.7875 24.576V23.808H68.7875V24.576H36.7875ZM36.7875 32.384V31.616H68.7875V32.384H36.7875ZM36.7875 40.192V39.424H68.7875V40.192H36.7875ZM36.7875 48V47.232H68.7875V48H36.7875Z" fill="white"/>
<path d="M20.104 19.528V14.952L18.6 15.336V12.136L20.104 11.72V5.448H21.096V11.464L23.24 10.952V4.712H24.232V10.696L25.8 10.344V13.512L24.232 13.96V18.536L25.8 18.152V21.448L24.232 21.832V27.848H23.24V22.088L21.096 22.664V28.904H20.104V22.888L18.6 23.272V19.976L20.104 19.528ZM23.24 18.76V14.152L21.096 14.696V19.272L23.24 18.76Z" fill="white"/>
<path d="M30.104 30.528V25.952L28.6 26.336V23.136L30.104 22.72V16.448H31.096V22.464L33.24 21.952V15.712H34.232V21.696L35.8 21.344V24.512L34.232 24.96V29.536L35.8 29.152V32.448L34.232 32.832V38.848H33.24V33.088L31.096 33.664V39.904H30.104V33.888L28.6 34.272V30.976L30.104 30.528ZM33.24 29.76V25.152L31.096 25.696V30.272L33.24 29.76Z" fill="white"/>
<path d="M43.64 44.224C43.64 42.208 44.92 41.152 46.584 40.352C45.048 39.488 43.8 38.304 43.8 36.096C43.8 33.408 46.328 31.712 50.04 31.712C50.904 31.712 55.608 32.192 55.608 35.456C55.608 37.056 54.84 38.112 53.688 38.848C55.192 39.616 56.312 40.672 56.312 42.592C56.312 46.912 52.888 48.288 49.688 48.288C46.52 48.288 43.64 47.008 43.64 44.224ZM45.464 44.064C45.464 46.144 47.416 47.232 49.56 47.232C51.704 47.232 52.696 46.144 52.696 44.864C52.696 42.752 50.328 42.08 47.992 41.056C46.584 41.6 45.464 42.784 45.464 44.064ZM49.976 32.64C48.568 32.64 46.744 33.312 46.744 34.656C46.744 36.672 49.464 37.216 52.024 38.112C53.08 37.504 53.72 36.672 53.72 35.392C53.72 33.152 51 32.64 49.976 32.64Z" fill="white"/>
<path d="M43.64 23.904C43.64 22.4 44.184 20.704 44.888 19.36C46.04 17.184 48.312 16 50.744 15.968C52.472 15.968 54.968 16.512 55.288 18.56C55.32 18.688 55.32 18.784 55.32 18.912C55.32 20.288 54.104 21.344 52.76 21.344C52.344 21.344 51.416 21.088 51.192 20.672C50.872 20.32 50.712 19.84 50.712 19.36C50.712 19.04 50.776 18.72 50.936 18.432C51.128 18.048 51.736 17.664 51.736 17.216C51.736 16.896 51.32 16.736 50.68 16.736C50.008 16.736 48.12 16.896 48.024 22.816C48.024 23.328 48.12 23.584 48.312 23.584C48.376 23.584 48.44 23.584 48.504 23.52C49.336 22.784 50.392 22.4 51.416 22.4C53.88 22.4 56.248 24.544 56.248 27.04C56.248 28.48 55.512 29.92 54.392 30.816C53.24 31.744 51.64 31.968 50.2 31.968C47.512 31.968 45.944 30.816 44.632 28.448C43.928 27.168 43.672 25.504 43.64 24.032V23.904ZM50.104 23.936C49.08 23.936 48.248 25.536 48.248 27.52C48.248 29.504 49.08 31.104 50.104 31.104C51.128 31.104 51.992 29.504 51.992 27.52C51.992 25.536 51.128 23.936 50.104 23.936Z" fill="white"/>
</svg>
