<svg width="82" height="80" viewBox="0 0 82 80" fill="none" xmlns="http://www.w3.org/2000/svg">
<path d="M14.7429 13.0424V11.7259H69.6V13.0424H14.7429ZM14.7429 26.4276V25.111H69.6V26.4276H14.7429ZM14.7429 39.8127V38.4961H69.6V39.8127H14.7429ZM14.7429 53.1979V51.8813H69.6V53.1979H14.7429ZM14.7429 66.583V65.2664H69.6V66.583H14.7429Z" fill="white"/>
<path d="M29.7429 52.3086C29.7429 50.9555 30.2367 49.7669 31.2241 48.7429C32.2115 47.7189 33.5464 46.9144 35.2287 46.3292C36.9475 45.7441 38.8309 45.4515 40.8789 45.4515C42.9635 45.4515 44.8835 45.7441 46.6389 46.3292C48.3944 46.8778 49.8024 47.6641 50.863 48.6881C51.9235 49.7121 52.4538 50.9189 52.4538 52.3086C52.4538 53.7349 51.9418 54.9784 50.9178 56.0389C49.8938 57.0629 48.5224 57.8675 46.8035 58.4526C45.1212 59.0012 43.2561 59.2755 41.2081 59.2755C39.1601 59.2755 37.2584 59.0012 35.5029 58.4526C33.7841 57.9041 32.3944 57.1178 31.3338 56.0938C30.2732 55.0332 29.7429 53.7715 29.7429 52.3086ZM42.3601 58.1784C43.6035 58.1784 44.4447 57.7212 44.8835 56.8069C45.3589 55.8926 45.5967 54.8138 45.5967 53.5704C45.5967 52.2904 45.3224 51.1201 44.7738 50.0595C44.2618 48.9989 43.5669 48.1578 42.6892 47.5361C41.8115 46.8778 40.8241 46.5486 39.7269 46.5486C38.4835 46.5486 37.6424 47.0058 37.2035 47.9201C36.8012 48.8344 36.6001 49.9132 36.6001 51.1566C36.6001 52.4001 36.8561 53.5521 37.3681 54.6126C37.8801 55.6732 38.5567 56.5326 39.3978 57.1909C40.2755 57.8492 41.2629 58.1784 42.3601 58.1784Z" fill="white"/>
<path d="M29.7429 38.5943C29.7429 37.2411 30.2367 36.0526 31.2241 35.0286C32.2115 34.0046 33.5464 33.2 35.2287 32.6149C36.9475 32.0297 38.8309 31.7371 40.8789 31.7371C42.9635 31.7371 44.8835 32.0297 46.6389 32.6149C48.3944 33.1634 49.8024 33.9497 50.863 34.9737C51.9235 35.9977 52.4538 37.2046 52.4538 38.5943C52.4538 40.0206 51.9418 41.264 50.9178 42.3246C49.8938 43.3486 48.5224 44.1531 46.8035 44.7383C45.1212 45.2869 43.2561 45.5611 41.2081 45.5611C39.1601 45.5611 37.2584 45.2869 35.5029 44.7383C33.7841 44.1897 32.3944 43.4034 31.3338 42.3794C30.2732 41.3189 29.7429 40.0571 29.7429 38.5943ZM42.3601 44.464C43.6035 44.464 44.4447 44.0069 44.8835 43.0926C45.3589 42.1783 45.5967 41.0994 45.5967 39.856C45.5967 38.576 45.3224 37.4057 44.7738 36.3451C44.2618 35.2846 43.5669 34.4434 42.6892 33.8217C41.8115 33.1634 40.8241 32.8343 39.7269 32.8343C38.4835 32.8343 37.6424 33.2914 37.2035 34.2057C36.8012 35.12 36.6001 36.1989 36.6001 37.4423C36.6001 38.6857 36.8561 39.8377 37.3681 40.8983C37.8801 41.9589 38.5567 42.8183 39.3978 43.4766C40.2755 44.1349 41.2629 44.464 42.3601 44.464Z" fill="white"/>
</svg>
