<svg width="70" height="70" viewBox="0 0 70 70" fill="none" xmlns="http://www.w3.org/2000/svg">
<path d="M18.6 19.768V19H50.6V19.768H18.6ZM18.6 27.576V26.808H50.6V27.576H18.6ZM18.6 35.384V34.616H50.6V35.384H18.6ZM18.6 43.192V42.424H50.6V43.192H18.6ZM18.6 51V50.232H50.6V51H18.6Z" fill="white"/>
<path d="M27.64 26.904C27.64 25.4 28.184 23.704 28.888 22.36C30.04 20.184 32.312 19 34.744 18.968C36.472 18.968 38.968 19.512 39.288 21.56C39.32 21.688 39.32 21.784 39.32 21.912C39.32 23.288 38.104 24.344 36.76 24.344C36.344 24.344 35.416 24.088 35.192 23.672C34.872 23.32 34.712 22.84 34.712 22.36C34.712 22.04 34.776 21.72 34.936 21.432C35.128 21.048 35.736 20.664 35.736 20.216C35.736 19.896 35.32 19.736 34.68 19.736C34.008 19.736 32.12 19.896 32.024 25.816C32.024 26.328 32.12 26.584 32.312 26.584C32.376 26.584 32.44 26.584 32.504 26.52C33.336 25.784 34.392 25.4 35.416 25.4C37.88 25.4 40.248 27.544 40.248 30.04C40.248 31.48 39.512 32.92 38.392 33.816C37.24 34.744 35.64 34.968 34.2 34.968C31.512 34.968 29.944 33.816 28.632 31.448C27.928 30.168 27.672 28.504 27.64 27.032V26.904ZM34.104 26.936C33.08 26.936 32.248 28.536 32.248 30.52C32.248 32.504 33.08 34.104 34.104 34.104C35.128 34.104 35.992 32.504 35.992 30.52C35.992 28.536 35.128 26.936 34.104 26.936Z" fill="white"/>
<path d="M27.64 46.974C27.64 44.958 28.92 43.902 30.584 43.102C29.048 42.238 27.8 41.054 27.8 38.846C27.8 36.158 30.328 34.462 34.04 34.462C34.904 34.462 39.608 34.942 39.608 38.206C39.608 39.806 38.84 40.862 37.688 41.598C39.192 42.366 40.312 43.422 40.312 45.342C40.312 49.662 36.888 51.038 33.688 51.038C30.52 51.038 27.64 49.758 27.64 46.974ZM29.464 46.814C29.464 48.894 31.416 49.982 33.56 49.982C35.704 49.982 36.696 48.894 36.696 47.614C36.696 45.502 34.328 44.83 31.992 43.806C30.584 44.35 29.464 45.534 29.464 46.814ZM33.976 35.39C32.568 35.39 30.744 36.062 30.744 37.406C30.744 39.422 33.464 39.966 36.024 40.862C37.08 40.254 37.72 39.422 37.72 38.142C37.72 35.902 35 35.39 33.976 35.39Z" fill="white"/>
</svg>
