<svg width="68" height="73" viewBox="0 0 68 73" fill="none" xmlns="http://www.w3.org/2000/svg">
<path d="M8.152 45.576L12.632 33.096C12.8027 32.6267 12.888 32.1573 12.888 31.688C12.888 31.176 12.696 30.92 12.312 30.92C11.5867 30.92 10.712 31.56 9.688 32.84C8.70667 34.0773 7.85333 35.8267 7.128 38.088H5.336C6.57333 34.5467 7.98133 32.0507 9.56 30.6C11.1387 29.1493 12.8453 28.424 14.68 28.424C15.5333 28.424 16.1947 28.616 16.664 29C17.176 29.384 17.432 30.024 17.432 30.92C18.0293 30.1947 18.776 29.5973 19.672 29.128C20.568 28.6587 21.5707 28.424 22.68 28.424C23.4907 28.424 24.1947 28.6373 24.792 29.064C25.432 29.448 25.752 30.0667 25.752 30.92C26.4773 29.9813 27.3307 29.3413 28.312 29C29.2933 28.616 30.1253 28.424 30.808 28.424C31.704 28.424 32.4293 28.5947 32.984 28.936C33.5813 29.2773 33.88 29.8747 33.88 30.728C33.88 31.0267 33.8373 31.3893 33.752 31.816C33.6667 32.2427 33.5813 32.5413 33.496 32.712L30.68 41.16C30.552 41.544 30.424 41.928 30.296 42.312C30.2107 42.696 30.168 43.0587 30.168 43.4C30.168 44.04 30.424 44.36 30.936 44.36C31.4907 44.36 32.152 43.8053 32.92 42.696C33.304 42.1413 33.7093 41.5013 34.136 40.776C34.5627 40.0507 34.9893 39.2187 35.416 38.28L36.952 38.92C35.8 41.5227 34.6267 43.464 33.432 44.744C32.28 45.9813 30.808 46.6 29.016 46.6C27.8213 46.6 26.8827 46.344 26.2 45.832C25.5173 45.2773 25.176 44.4667 25.176 43.4C25.176 42.8027 25.304 42.056 25.56 41.16C25.816 40.2213 26.0293 39.5387 26.2 39.112L28.376 33.032C28.5893 32.392 28.696 31.9867 28.696 31.816C28.696 31.2187 28.4187 30.92 27.864 30.92C27.352 30.92 26.904 31.1973 26.52 31.752C26.136 32.3067 25.7093 33.224 25.24 34.504L21.08 45.576H15.896L20.632 32.712C20.7173 32.2853 20.76 31.9867 20.76 31.816C20.76 31.2187 20.4827 30.92 19.928 30.92C19.1173 30.92 18.4773 31.5813 18.008 32.904L13.4 45.576H8.152ZM36.8245 38.088H35.0325C36.6538 34.5893 38.2112 32.1147 39.7045 30.664C41.1978 29.1707 42.8832 28.424 44.7605 28.424C45.8698 28.424 46.6805 28.6587 47.1925 29.128C47.7472 29.5547 48.0672 30.1093 48.1525 30.792C48.6218 30.3227 49.3045 29.8107 50.2005 29.256C51.0965 28.7013 52.1632 28.424 53.4005 28.424C55.3205 28.424 56.7072 29.064 57.5605 30.344C58.4565 31.5813 58.9045 33.16 58.9045 35.08C58.9045 36.9573 58.4352 38.792 57.4965 40.584C56.5578 42.3333 55.3205 43.784 53.7845 44.936C52.2912 46.0453 50.6698 46.6 48.9205 46.6C48.0672 46.6 47.2565 46.4293 46.4885 46.088C45.7632 45.7467 45.1658 45.1493 44.6965 44.296L41.7525 52.68C41.5392 53.2347 41.4325 53.6827 41.4325 54.024C41.4325 54.408 41.7952 54.6 42.5205 54.6H45.2725V56.584H31.0645V54.6H33.6245C34.4352 54.6 34.9898 54.4507 35.2885 54.152C35.5872 53.8533 35.8858 53.32 36.1845 52.552L43.1605 33.224C43.4165 32.4987 43.5445 31.9867 43.5445 31.688C43.5445 31.1333 43.3098 30.856 42.8405 30.856C42.2005 30.856 41.4112 31.3467 40.4725 32.328C39.5338 33.3093 38.6592 34.5893 37.8485 36.168L36.8245 38.088ZM46.0405 42.056C46.0405 43.72 46.5525 44.552 47.5765 44.552C48.2592 44.552 48.9418 44.104 49.6245 43.208C50.3072 42.312 50.9472 41.224 51.5445 39.944C52.1418 38.6213 52.6112 37.2987 52.9525 35.976C53.3365 34.6533 53.5285 33.5653 53.5285 32.712C53.5285 31.304 53.0378 30.6 52.0565 30.6C51.2458 30.6 50.4565 30.9627 49.6885 31.688C48.9632 32.4133 48.3232 33.3733 47.7685 34.568C47.2565 35.72 46.8298 36.9573 46.4885 38.28C46.1898 39.6027 46.0405 40.8613 46.0405 42.056Z" fill="white"/>
</svg>
