<svg width="70" height="70" viewBox="0 0 70 70" fill="none" xmlns="http://www.w3.org/2000/svg">
<path d="M33.704 22.904L38.824 29.144C37.7573 30.4027 36.936 31.4907 36.36 32.408C35.784 33.3253 35.496 34.2533 35.496 35.192C35.496 35.9813 35.752 36.8133 36.264 37.688C36.776 38.5413 37.5867 39.6293 38.696 40.952L38.184 41.656C37.2453 41.0587 36.3707 40.76 35.56 40.76C34.9627 40.76 34.5147 40.9627 34.216 41.368C33.9173 41.752 33.768 42.2213 33.768 42.776C33.768 43.4587 33.9067 44.1093 34.184 44.728C34.4827 45.3253 34.8773 45.9013 35.368 46.456L34.952 47.064C33.48 45.9973 32.392 45.0267 31.688 44.152C30.984 43.2773 30.632 42.328 30.632 41.304C30.632 40.3867 30.92 39.7147 31.496 39.288C32.072 38.8613 32.7653 38.648 33.576 38.648C34.216 38.648 35.048 38.8933 36.072 39.384V39.32L31.144 32.76C33.2987 30.8613 34.376 29.0907 34.376 27.448C34.376 26.1467 33.6933 24.632 32.328 22.904H33.704Z" fill="white"/>
</svg>
