<svg width="70" height="70" viewBox="0 0 70 70" fill="none" xmlns="http://www.w3.org/2000/svg">
<path d="M19.8242 37.3613H16.5498L16.1602 38.2637C16.0326 38.5645 15.9688 38.8128 15.9688 39.0088C15.9688 39.2686 16.0736 39.46 16.2832 39.583C16.4062 39.6559 16.7093 39.7106 17.1924 39.7471V40H14.1094V39.7471C14.4421 39.6969 14.7155 39.5602 14.9297 39.3369C15.1439 39.109 15.4082 38.6419 15.7227 37.9355L19.0381 30.5391H19.168L22.5107 38.1406C22.8298 38.8607 23.0918 39.3141 23.2969 39.501C23.4518 39.6423 23.6706 39.7243 23.9531 39.7471V40H19.4688V39.7471H19.6533C20.0133 39.7471 20.2663 39.6969 20.4121 39.5967C20.5124 39.5238 20.5625 39.4189 20.5625 39.2822C20.5625 39.2002 20.5488 39.1159 20.5215 39.0293C20.5124 38.9883 20.444 38.8174 20.3164 38.5166L19.8242 37.3613ZM19.5918 36.8555L18.2109 33.6631L16.7891 36.8555H19.5918ZM26.6608 30.7305V38.6738C26.6608 39.125 26.7132 39.4144 26.818 39.542C26.9229 39.665 27.1279 39.7357 27.4333 39.7539V40H23.9811V39.7539C24.2637 39.7448 24.4733 39.6628 24.61 39.5078C24.7012 39.403 24.7468 39.125 24.7468 38.6738V32.0566C24.7468 31.61 24.6943 31.3252 24.5895 31.2021C24.4847 31.0745 24.2819 31.0016 23.9811 30.9834V30.7305H26.6608ZM30.1273 30.7305V38.6738C30.1273 39.125 30.1797 39.4144 30.2845 39.542C30.3893 39.665 30.5944 39.7357 30.8998 39.7539V40H27.4476V39.7539C27.7302 39.7448 27.9398 39.6628 28.0765 39.5078C28.1677 39.403 28.2132 39.125 28.2132 38.6738V32.0566C28.2132 31.61 28.1608 31.3252 28.056 31.2021C27.9512 31.0745 27.7484 31.0016 27.4476 30.9834V30.7305H30.1273ZM36.5059 36.5752H32.9991C33.0401 37.4229 33.2657 38.0928 33.6758 38.585C33.9903 38.9632 34.3685 39.1523 34.8106 39.1523C35.084 39.1523 35.3324 39.0771 35.5557 38.9268C35.779 38.7718 36.0183 38.4961 36.2735 38.0996L36.5059 38.25C36.1595 38.9564 35.7767 39.4577 35.3575 39.7539C34.9382 40.0456 34.4528 40.1914 33.9014 40.1914C32.9535 40.1914 32.2357 39.8268 31.7481 39.0977C31.3562 38.5098 31.1602 37.7806 31.1602 36.9102C31.1602 35.8438 31.4473 34.9961 32.0215 34.3672C32.6003 33.7337 33.2771 33.417 34.0518 33.417C34.6989 33.417 35.2595 33.6836 35.7334 34.2168C36.212 34.7454 36.4694 35.5316 36.5059 36.5752ZM34.8243 36.1172C34.8243 35.3835 34.7832 34.8799 34.7012 34.6064C34.6237 34.333 34.5007 34.1257 34.3321 33.9844C34.2364 33.9023 34.1088 33.8613 33.9493 33.8613C33.7123 33.8613 33.5186 33.9775 33.3682 34.21C33.0993 34.6156 32.9649 35.1715 32.9649 35.8779V36.1172H34.8243ZM40.9841 33.6836H43.1374V34.4355H41.9138C42.1371 34.6589 42.292 34.8617 42.3786 35.0439C42.488 35.29 42.5427 35.5475 42.5427 35.8164C42.5427 36.2721 42.4151 36.6686 42.1599 37.0059C41.9092 37.3385 41.5652 37.6006 41.1277 37.792C40.6947 37.9788 40.3096 38.0723 39.9724 38.0723C39.945 38.0723 39.6716 38.0609 39.1521 38.0381C38.947 38.0381 38.7738 38.1064 38.6325 38.2432C38.4958 38.3753 38.4275 38.5348 38.4275 38.7217C38.4275 38.8857 38.489 39.0202 38.612 39.125C38.7396 39.2298 38.9447 39.2822 39.2273 39.2822L40.4099 39.2686C41.3669 39.2686 42.0254 39.3734 42.3855 39.583C42.9004 39.8747 43.1579 40.3236 43.1579 40.9297C43.1579 41.3171 43.0394 41.668 42.8025 41.9824C42.5655 42.3014 42.2533 42.5361 41.8659 42.6865C41.278 42.9098 40.6013 43.0215 39.8357 43.0215C39.2614 43.0215 38.7374 42.9645 38.2634 42.8506C37.7894 42.7412 37.4499 42.5863 37.2448 42.3857C37.0398 42.1898 36.9372 41.9824 36.9372 41.7637C36.9372 41.554 37.0147 41.3649 37.1696 41.1963C37.3292 41.0322 37.6231 40.8932 38.0515 40.7793C37.459 40.4876 37.1628 40.082 37.1628 39.5625C37.1628 39.248 37.2836 38.9427 37.5251 38.6465C37.7667 38.3503 38.1495 38.0928 38.6736 37.874C38.0629 37.6507 37.6208 37.3568 37.3474 36.9922C37.0739 36.6276 36.9372 36.2061 36.9372 35.7275C36.9372 35.1032 37.1924 34.5632 37.7029 34.1074C38.2133 33.6471 38.8695 33.417 39.6716 33.417C40.0954 33.417 40.5329 33.5059 40.9841 33.6836ZM39.8015 33.8408C39.5372 33.8408 39.3139 33.9753 39.1316 34.2441C38.9493 34.5085 38.8581 35.0599 38.8581 35.8984C38.8581 36.5775 38.947 37.0446 39.1247 37.2998C39.307 37.5505 39.5212 37.6758 39.7673 37.6758C40.0407 37.6758 40.2686 37.5505 40.4509 37.2998C40.6332 37.0492 40.7243 36.5615 40.7243 35.8369C40.7243 35.0212 40.6218 34.4652 40.4167 34.1689C40.2709 33.9502 40.0658 33.8408 39.8015 33.8408ZM39.3982 40.9434C38.9333 40.9434 38.6257 40.9821 38.4753 41.0596C38.2155 41.2008 38.0857 41.3923 38.0857 41.6338C38.0857 41.8662 38.2201 42.0758 38.489 42.2627C38.7579 42.4541 39.2637 42.5498 40.0066 42.5498C40.64 42.5498 41.1368 42.4655 41.4968 42.2969C41.8614 42.1283 42.0437 41.8913 42.0437 41.5859C42.0437 41.472 42.0095 41.3763 41.9411 41.2988C41.8181 41.1621 41.6312 41.0687 41.3806 41.0186C41.1345 40.9684 40.4737 40.9434 39.3982 40.9434ZM46.1049 33.6084V35.0576C46.5287 34.3968 46.9001 33.9593 47.2191 33.7451C47.5382 33.5264 47.8458 33.417 48.142 33.417C48.3972 33.417 48.6 33.4967 48.7504 33.6562C48.9053 33.8112 48.9828 34.0322 48.9828 34.3193C48.9828 34.6247 48.9076 34.8617 48.7572 35.0303C48.6114 35.1989 48.4337 35.2832 48.224 35.2832C47.9825 35.2832 47.7729 35.2057 47.5951 35.0508C47.4174 34.8958 47.3126 34.8092 47.2807 34.791C47.2351 34.7637 47.1827 34.75 47.1234 34.75C46.9913 34.75 46.866 34.8001 46.7475 34.9004C46.5606 35.0553 46.4193 35.2764 46.3236 35.5635C46.1778 36.0055 46.1049 36.4932 46.1049 37.0264V38.4961L46.1117 38.8789C46.1117 39.1387 46.1277 39.305 46.1596 39.3779C46.2143 39.501 46.294 39.5921 46.3988 39.6514C46.5082 39.7061 46.6905 39.7402 46.9457 39.7539V40H43.4936V39.7539C43.7715 39.7311 43.9584 39.6559 44.0541 39.5283C44.1544 39.3962 44.2045 39.0521 44.2045 38.4961V34.9619C44.2045 34.5973 44.1863 34.3649 44.1498 34.2646C44.1042 34.137 44.0382 34.0436 43.9516 33.9844C43.865 33.9251 43.7123 33.8841 43.4936 33.8613V33.6084H46.1049ZM52.2579 33.417C52.8139 33.417 53.3311 33.5605 53.8096 33.8477C54.2882 34.1348 54.6505 34.5426 54.8966 35.0713C55.1472 35.5999 55.2725 36.1787 55.2725 36.8076C55.2725 37.7145 55.0424 38.4733 54.5821 39.084C54.0261 39.8223 53.2582 40.1914 52.2784 40.1914C51.3168 40.1914 50.5762 39.8542 50.0567 39.1797C49.5372 38.5052 49.2774 37.7236 49.2774 36.835C49.2774 35.9189 49.5417 35.1214 50.0704 34.4424C50.6036 33.7588 51.3328 33.417 52.2579 33.417ZM52.2852 33.9023C52.0528 33.9023 51.8523 33.9912 51.6837 34.1689C51.5196 34.3421 51.4102 34.6885 51.3555 35.208C51.3054 35.723 51.2803 36.4408 51.2803 37.3613C51.2803 37.849 51.3123 38.3047 51.3761 38.7285C51.4262 39.0521 51.5333 39.2982 51.6973 39.4668C51.8614 39.6354 52.0483 39.7197 52.2579 39.7197C52.463 39.7197 52.6339 39.6628 52.7706 39.5488C52.9483 39.3939 53.0668 39.1774 53.1261 38.8994C53.2172 38.4665 53.2628 37.5915 53.2628 36.2744C53.2628 35.4997 53.2195 34.9688 53.1329 34.6816C53.0463 34.39 52.9187 34.1781 52.7501 34.0459C52.6316 33.9502 52.4766 33.9023 52.2852 33.9023Z" fill="white"/>
</svg>
