<svg width="70" height="70" viewBox="0 0 70 70" fill="none" xmlns="http://www.w3.org/2000/svg">
<path d="M18.6 19.768V19H50.6V19.768H18.6ZM18.6 27.576V26.808H50.6V27.576H18.6ZM18.6 35.384V34.616H50.6V35.384H18.6ZM18.6 43.192V42.424H50.6V43.192H18.6ZM18.6 51V50.232H50.6V51H18.6Z" fill="white"/>
<path d="M27.104 22.528V17.952L25.6 18.336V15.136L27.104 14.72V8.448H28.096V14.464L30.24 13.952V7.712H31.232V13.696L32.8 13.344V16.512L31.232 16.96V21.536L32.8 21.152V24.448L31.232 24.832V30.848H30.24V25.088L28.096 25.664V31.904H27.104V25.888L25.6 26.272V22.976L27.104 22.528ZM30.24 21.76V17.152L28.096 17.696V22.272L30.24 21.76Z" fill="white"/>
<path d="M37.104 33.528V28.952L35.6 29.336V26.136L37.104 25.72V19.448H38.096V25.464L40.24 24.952V18.712H41.232V24.696L42.8 24.344V27.512L41.232 27.96V32.536L42.8 32.152V35.448L41.232 35.832V41.848H40.24V36.088L38.096 36.664V42.904H37.104V36.888L35.6 37.272V33.976L37.104 33.528ZM40.24 32.76V28.152L38.096 28.696V33.272L40.24 32.76Z" fill="white"/>
</svg>
