<svg width="80" height="60" viewBox="0 0 80 60" fill="none" xmlns="http://www.w3.org/2000/svg">
<path d="M33.6 43.18C33.6 42.3907 33.888 41.6973 34.464 41.1C35.04 40.5027 35.8187 40.0333 36.8 39.692C37.8027 39.3507 38.9013 39.18 40.096 39.18C41.312 39.18 42.432 39.3507 43.456 39.692C44.48 40.012 45.3013 40.4707 45.92 41.068C46.5387 41.6653 46.848 42.3693 46.848 43.18C46.848 44.012 46.5493 44.7373 45.952 45.356C45.3547 45.9533 44.5547 46.4227 43.552 46.764C42.5707 47.084 41.4827 47.244 40.288 47.244C39.0933 47.244 37.984 47.084 36.96 46.764C35.9573 46.444 35.1467 45.9853 34.528 45.388C33.9093 44.7693 33.6 44.0333 33.6 43.18ZM40.96 46.604C41.6853 46.604 42.176 46.3373 42.432 45.804C42.7093 45.2707 42.848 44.6413 42.848 43.916C42.848 43.1693 42.688 42.4867 42.368 41.868C42.0693 41.2493 41.664 40.7587 41.152 40.396C40.64 40.012 40.064 39.82 39.424 39.82C38.6987 39.82 38.208 40.0867 37.952 40.62C37.7173 41.1533 37.6 41.7827 37.6 42.508C37.6 43.2333 37.7493 43.9053 38.048 44.524C38.3467 45.1427 38.7413 45.644 39.232 46.028C39.744 46.412 40.32 46.604 40.96 46.604Z" fill="white"/>
<path d="M33.6 19.68C33.6 18.8907 33.888 18.1973 34.464 17.6C35.04 17.0027 35.8187 16.5333 36.8 16.192C37.8027 15.8507 38.9013 15.68 40.096 15.68C41.312 15.68 42.432 15.8507 43.456 16.192C44.48 16.512 45.3013 16.9707 45.92 17.568C46.5387 18.1653 46.848 18.8693 46.848 19.68C46.848 20.512 46.5493 21.2373 45.952 21.856C45.3547 22.4533 44.5547 22.9227 43.552 23.264C42.5707 23.584 41.4827 23.744 40.288 23.744C39.0933 23.744 37.984 23.584 36.96 23.264C35.9573 22.944 35.1467 22.4853 34.528 21.888C33.9093 21.2693 33.6 20.5333 33.6 19.68ZM40.96 23.104C41.6853 23.104 42.176 22.8373 42.432 22.304C42.7093 21.7707 42.848 21.1413 42.848 20.416C42.848 19.6693 42.688 18.9867 42.368 18.368C42.0693 17.7493 41.664 17.2587 41.152 16.896C40.64 16.512 40.064 16.32 39.424 16.32C38.6987 16.32 38.208 16.5867 37.952 17.12C37.7173 17.6533 37.6 18.2827 37.6 19.008C37.6 19.7333 37.7493 20.4053 38.048 21.024C38.3467 21.6427 38.7413 22.144 39.232 22.528C39.744 22.912 40.32 23.104 40.96 23.104Z" fill="white"/>
<path d="M11.6 16.268V15.5H43.6V16.268H11.6ZM11.6 24.076V23.308H43.6V24.076H11.6ZM11.6 31.884V31.116H43.6V31.884H11.6ZM11.6 39.692V38.924H43.6V39.692H11.6ZM11.6 47.5V46.732H43.6V47.5H11.6ZM36.7875 16.268V15.5H68.7875V16.268H36.7875ZM36.7875 24.076V23.308H68.7875V24.076H36.7875ZM36.7875 31.884V31.116H68.7875V31.884H36.7875ZM36.7875 39.692V38.924H68.7875V39.692H36.7875ZM36.7875 47.5V46.732H68.7875V47.5H36.7875Z" fill="white"/>
</svg>
