<svg width="70" height="70" viewBox="0 0 70 70" fill="none" xmlns="http://www.w3.org/2000/svg">
<path d="M34.9 18.712H35.732C35.86 19.5867 36.02 20.3653 36.212 21.048C36.404 21.7093 36.6813 22.36 37.044 23C37.4067 23.6187 37.8867 24.2907 38.484 25.016C39.124 25.7627 39.6573 26.392 40.084 26.904C40.5107 27.3947 40.9373 27.9173 41.364 28.472C42.1533 29.4533 42.7293 30.4667 43.092 31.512C43.476 32.536 43.668 33.5813 43.668 34.648C43.668 36.8667 42.7293 39.5547 40.852 42.712H40.34C40.9373 41.4533 41.4707 40.1947 41.94 38.936C42.4307 37.656 42.676 36.44 42.676 35.288C42.676 34.136 42.3773 32.952 41.78 31.736C41.1827 30.52 40.34 29.496 39.252 28.664C38.1853 27.832 37.012 27.3733 35.732 27.288V45.4C35.732 46.3173 35.4333 47.1813 34.836 47.992C34.26 48.7813 33.492 49.4213 32.532 49.912C31.572 50.4027 30.516 50.648 29.364 50.648C28.4467 50.648 27.668 50.4133 27.028 49.944C26.4093 49.4747 26.1 48.7813 26.1 47.864C26.1 47.1813 26.2813 46.5307 26.644 45.912C27.0067 45.272 27.4867 44.7067 28.084 44.216C28.6813 43.7253 29.332 43.3413 30.036 43.064C30.7613 42.7867 31.4867 42.648 32.212 42.648C33.4493 42.648 34.3453 42.8933 34.9 43.384V18.712Z" fill="white"/>
</svg>
