<svg width="80" height="60" viewBox="0 0 80 60" fill="none" xmlns="http://www.w3.org/2000/svg">
<path d="M11.5601 27.9291L8.77596 28.2834L8.54227 29.0928C8.46631 29.3623 8.43893 29.5804 8.46014 29.7471C8.48824 29.9679 8.59808 30.1193 8.78964 30.2013C8.90215 30.25 9.16576 30.2637 9.58045 30.2424L9.60782 30.4575L6.98638 30.791L6.95901 30.576C7.23646 30.4974 7.45417 30.3515 7.61214 30.1385C7.76961 29.9216 7.94382 29.4958 8.13477 28.8611L10.1536 22.2133L10.264 22.1992L13.9288 28.3011C14.2779 28.8788 14.5498 29.236 14.7444 29.3727C14.8914 29.4761 15.0863 29.5222 15.329 29.511L15.3564 29.726L11.5434 30.2112L11.516 29.9961L11.673 29.9762C11.9791 29.9372 12.1887 29.8672 12.3019 29.7662C12.3792 29.6933 12.4105 29.5988 12.3957 29.4825C12.3869 29.4128 12.3661 29.3426 12.3335 29.2719C12.3213 29.238 12.2447 29.1001 12.1036 28.8582L11.5601 27.9291ZM11.3078 27.5241L9.78827 24.9591L8.92466 27.8274L11.3078 27.5241ZM16.5949 21.5591L17.4543 28.3132C17.5031 28.6968 17.579 28.9372 17.6819 29.0344C17.7843 29.1277 17.9664 29.1655 18.228 29.148L18.2546 29.3572L15.3193 29.7307L15.2926 29.5215C15.5319 29.4832 15.7013 29.3907 15.8008 29.2442C15.8669 29.1452 15.8756 28.9039 15.8268 28.5203L15.1109 22.8938C15.0625 22.514 14.9872 22.2775 14.8847 22.1842C14.7818 22.0871 14.6015 22.047 14.3437 22.064L14.3164 21.849L16.5949 21.5591ZM19.4814 21.1918L20.3409 27.9459C20.3897 28.3295 20.4655 28.5699 20.5685 28.6671C20.6709 28.7604 20.8529 28.7982 21.1145 28.7807L21.1412 28.9899L18.2058 29.3634L18.1792 29.1542C18.4185 29.1159 18.5879 29.0234 18.6873 28.8769C18.7535 28.7779 18.7622 28.5366 18.7134 28.153L17.9974 22.5265C17.9491 22.1467 17.8737 21.9102 17.7713 21.8169C17.6684 21.7198 17.488 21.6797 17.2303 21.6967L17.2029 21.4817L19.4814 21.1918ZM25.4765 25.4791L22.4947 25.8585C22.6213 26.5748 22.8856 27.12 23.2876 27.4942C23.5959 27.7818 23.938 27.9017 24.3138 27.8538C24.5463 27.8242 24.7494 27.7334 24.923 27.5814C25.0961 27.4255 25.2697 27.1652 25.4438 26.8004L25.6577 26.9032C25.4396 27.5413 25.1684 28.0089 24.8439 28.3062C24.519 28.5995 24.1221 28.776 23.6532 28.8357C22.8472 28.9383 22.1974 28.7059 21.7039 28.1387C21.3071 27.6812 21.0615 27.0824 20.9674 26.3423C20.852 25.4355 21.0044 24.6837 21.4246 24.0868C21.8482 23.4856 22.3894 23.143 23.0481 23.0592C23.5984 22.9892 24.1038 23.1553 24.5645 23.5574C25.0286 23.9551 25.3326 24.5957 25.4765 25.4791ZM23.9971 25.2716C23.9177 24.6477 23.8283 24.224 23.729 24.0003C23.6335 23.7762 23.5065 23.6132 23.3478 23.5113C23.2576 23.4519 23.1446 23.4309 23.009 23.4481C22.8075 23.4738 22.6554 23.5935 22.5527 23.8074C22.3679 24.1814 22.3138 24.6687 22.3902 25.2693L22.4161 25.4728L23.9971 25.2716ZM28.9105 22.5436L30.7414 22.3107L30.8228 22.95L29.7823 23.0824C29.9964 23.2481 30.1501 23.4038 30.2434 23.5495C30.363 23.7469 30.4374 23.9599 30.4665 24.1885C30.5158 24.576 30.4502 24.927 30.2697 25.2413C30.0925 25.5513 29.8283 25.8113 29.477 26.0214C29.1291 26.2271 28.8118 26.3482 28.525 26.3847C28.5018 26.3877 28.2681 26.4076 27.8238 26.4444C27.6495 26.4666 27.5096 26.5435 27.4043 26.675C27.3023 26.8022 27.2615 26.9452 27.2817 27.1041C27.2994 27.2436 27.3663 27.3512 27.4823 27.427C27.6021 27.5024 27.7821 27.5247 28.0224 27.4942L29.0265 27.3546C29.8402 27.251 30.4115 27.2689 30.7403 27.4082C31.2097 27.6005 31.4772 27.9543 31.5428 28.4697C31.5847 28.7991 31.522 29.1103 31.3545 29.4033C31.1875 29.7002 30.9474 29.9335 30.6343 30.1033C30.1586 30.3568 29.5953 30.5249 28.9443 30.6078C28.456 30.6699 28.0042 30.6782 27.5889 30.6326C27.1741 30.5909 26.8686 30.4958 26.6725 30.3475C26.477 30.2031 26.3673 30.0379 26.3437 29.8519C26.321 29.6736 26.3664 29.5044 26.4799 29.3443C26.5978 29.1875 26.8327 29.0375 27.1846 28.8943C26.6493 28.7104 26.3535 28.3976 26.2973 27.9558C26.2633 27.6885 26.333 27.4158 26.5063 27.1378C26.6796 26.8598 26.9773 26.5994 27.3992 26.3567C26.8558 26.2329 26.4481 26.0308 26.1762 25.7504C25.9042 25.4699 25.7424 25.1263 25.6906 24.7194C25.6231 24.1886 25.7816 23.7018 26.1663 23.259C26.5505 22.8124 27.0836 22.5457 27.7656 22.459C28.126 22.4131 28.5076 22.4413 28.9105 22.5436ZM27.9219 22.8053C27.6972 22.8339 27.5218 22.9724 27.3959 23.2207C27.2695 23.4652 27.2517 23.9439 27.3424 24.6569C27.4159 25.2343 27.542 25.6219 27.7207 25.8196C27.9028 26.013 28.0985 26.0964 28.3078 26.0698C28.5403 26.0402 28.7205 25.909 28.8483 25.6762C28.9762 25.4433 29.001 25.0188 28.9226 24.4027C28.8343 23.7091 28.687 23.2474 28.4805 23.0177C28.3329 22.8475 28.1467 22.7767 27.9219 22.8053ZM28.3474 28.8881C27.9522 28.9384 27.6948 29.0046 27.5753 29.0868C27.3697 29.235 27.28 29.4118 27.3061 29.6172C27.3313 29.8148 27.4683 29.9785 27.7171 30.1083C27.9664 30.242 28.4069 30.2686 29.0385 30.1882C29.5772 30.1197 29.9904 29.9943 30.2783 29.8119C30.5701 29.6291 30.6994 29.4079 30.6664 29.1483C30.6541 29.0514 30.6146 28.9737 30.5481 28.9152C30.4287 28.8123 30.2597 28.7531 30.0412 28.7376C29.8265 28.7216 29.2619 28.7718 28.3474 28.8881ZM33.1955 21.9334L33.3523 23.1657C33.6412 22.5579 33.9097 22.1458 34.1578 21.9291C34.4053 21.7086 34.6551 21.5823 34.907 21.5503C35.124 21.5227 35.305 21.5685 35.4502 21.6879C35.5987 21.8029 35.6885 21.9824 35.7195 22.2266C35.7526 22.4862 35.7143 22.6958 35.6046 22.8555C35.4989 23.0146 35.3569 23.1055 35.1786 23.1282C34.9732 23.1543 34.7866 23.1112 34.6187 22.9986C34.4508 22.8861 34.3523 22.8238 34.3232 22.8118C34.2815 22.7935 34.2355 22.7875 34.1851 22.7939C34.0727 22.8082 33.9716 22.8644 33.8817 22.9625C33.7396 23.1144 33.6434 23.3177 33.5931 23.5721C33.5169 23.9638 33.5076 24.3863 33.5653 24.8397L33.7243 26.0894L33.7716 26.4141C33.7997 26.635 33.8312 26.7747 33.8663 26.8333C33.9261 26.932 34.0037 27.0008 34.0993 27.0399C34.1982 27.0746 34.3569 27.0839 34.5754 27.0679L34.602 27.2772L31.6667 27.6507L31.6401 27.4414C31.874 27.3919 32.0247 27.3078 32.0923 27.1889C32.1632 27.0657 32.1686 26.7677 32.1085 26.295L31.7261 23.2899C31.6867 22.9799 31.646 22.7843 31.6042 22.703C31.5516 22.5994 31.4853 22.5271 31.4053 22.4861C31.3252 22.4451 31.191 22.4267 31.0025 22.431L30.9752 22.216L33.1955 21.9334ZM38.3457 21.1127C38.8185 21.0526 39.2738 21.1187 39.7117 21.311C40.1497 21.5034 40.5019 21.811 40.7683 22.2339C41.0386 22.6562 41.2078 23.1348 41.2759 23.6696C41.374 24.4407 41.2604 25.1108 40.9351 25.6798C40.5422 26.3677 39.9292 26.7647 39.0961 26.8707C38.2785 26.9747 37.6123 26.7681 37.0976 26.2508C36.5828 25.7335 36.2774 25.0971 36.1813 24.3414C36.0821 23.5626 36.2206 22.8558 36.5966 22.2213C36.9761 21.5823 37.5591 21.2128 38.3457 21.1127ZM38.4215 21.5224C38.2238 21.5476 38.063 21.6449 37.9388 21.8142C37.8181 21.9792 37.7625 22.2856 37.7722 22.7332C37.7853 23.1765 37.8417 23.7895 37.9413 24.5723C37.994 24.9869 38.0705 25.371 38.1706 25.7244C38.2482 25.9941 38.3659 26.1918 38.5236 26.3174C38.6814 26.4431 38.8494 26.4945 39.0276 26.4719C39.202 26.4497 39.3411 26.3827 39.4451 26.2711C39.5794 26.1201 39.6568 25.9232 39.6771 25.6804C39.7077 25.3024 39.6518 24.5535 39.5093 23.4336C39.4255 22.7749 39.3312 22.3281 39.2265 22.0934C39.1214 21.8547 38.9899 21.6884 38.8323 21.5942C38.7211 21.5257 38.5842 21.5017 38.4215 21.5224Z" fill="white"/>
<path d="M36.2034 40.4663C35.479 40.9852 34.8525 41.2176 34.324 41.1637C34.0131 41.1319 33.765 41.0045 33.5797 40.7814C33.3948 40.5544 33.318 40.2874 33.3494 39.9804C33.3918 39.5646 33.6087 39.2098 33.9999 38.916C34.3916 38.6183 35.216 38.2549 36.4731 37.8257L36.5291 37.2778C36.5712 36.8658 36.5743 36.605 36.5383 36.4954C36.5067 36.3822 36.4327 36.2804 36.3163 36.19C36.2003 36.0957 36.0645 36.0406 35.9091 36.0247C35.6565 35.9989 35.4428 36.034 35.2681 36.13C35.1599 36.1896 35.1011 36.2661 35.0916 36.3594C35.0832 36.441 35.1273 36.5476 35.2238 36.6791C35.3544 36.8613 35.4118 37.0301 35.3959 37.1856C35.3764 37.376 35.2879 37.5319 35.1302 37.6532C34.9768 37.771 34.7855 37.8182 34.5562 37.7948C34.3114 37.7698 34.113 37.6749 33.9609 37.5102C33.8128 37.3459 33.7489 37.1646 33.7691 36.9664C33.7977 36.6866 33.9356 36.4317 34.1829 36.2018C34.4306 35.9679 34.7596 35.8032 35.1699 35.7077C35.5802 35.6122 35.999 35.5862 36.4265 35.6299C36.9433 35.6827 37.3401 35.8351 37.6167 36.0872C37.8975 36.3358 38.0696 36.5929 38.1327 36.8585C38.1705 37.0272 38.1594 37.405 38.0994 37.9918L37.8833 40.1078C37.8579 40.3565 37.8516 40.5148 37.8642 40.5829C37.8773 40.647 37.9017 40.6967 37.9374 40.7317C37.9731 40.7668 38.0162 40.7869 38.0667 40.792C38.1677 40.8024 38.278 40.741 38.3977 40.6079L38.5582 40.7657C38.3346 41.0334 38.1111 41.2226 37.8877 41.3333C37.6687 41.4405 37.427 41.4806 37.1628 41.4536C36.8519 41.4219 36.6163 41.3252 36.4562 41.1635C36.2964 40.998 36.2121 40.7656 36.2034 40.4663ZM36.2469 40.0407L36.4332 38.2162C35.9349 38.4441 35.5549 38.7037 35.2935 38.9951C35.1205 39.1895 35.0231 39.3935 35.0013 39.6072C34.983 39.786 35.0311 39.9499 35.1454 40.099C35.2319 40.2139 35.3625 40.2802 35.5374 40.2981C35.7317 40.3179 35.9682 40.2322 36.2469 40.0407ZM44.1342 34.5678L43.9306 36.5613L45.2247 36.6935L45.1657 37.2706L43.8717 37.1384L43.5281 40.5017C43.496 40.8165 43.4887 41.0219 43.5064 41.118C43.5284 41.2105 43.5733 41.2897 43.6412 41.3555C43.7094 41.4175 43.7747 41.4516 43.8369 41.458C44.0894 41.4838 44.3481 41.3158 44.6128 40.9541L44.7745 41.1002C44.3836 41.8142 43.8344 42.1351 43.1272 42.0628C42.7813 42.0275 42.4977 41.9023 42.2762 41.6873C42.059 41.4688 41.9294 41.2376 41.8876 40.9938C41.8622 40.8577 41.8793 40.4982 41.9389 39.9153L42.2395 36.9717L41.5284 36.899L41.5492 36.695C42.0742 36.3992 42.5271 36.0783 42.908 35.7324C43.2927 35.3869 43.6374 34.9921 43.9419 34.5481L44.1342 34.5678ZM49.6739 39.7041L46.6836 39.3987C46.6447 40.1251 46.7787 40.716 47.0856 41.1714C47.3208 41.5213 47.6269 41.7155 48.0038 41.754C48.237 41.7778 48.4553 41.7354 48.6588 41.6266C48.8627 41.5139 49.0908 41.2996 49.3429 40.9838L49.528 41.1323C49.1711 41.7044 48.8011 42.0985 48.4177 42.3146C48.0348 42.5268 47.6083 42.6089 47.138 42.5609C46.3298 42.4783 45.7495 42.1049 45.3972 41.4407C45.1142 40.9052 45.0106 40.2664 45.0864 39.5242C45.1793 38.6148 45.4979 37.917 46.0423 37.4308C46.591 36.941 47.1957 36.7299 47.8563 36.7974C48.4081 36.8537 48.8629 37.1299 49.2206 37.6258C49.5826 38.1183 49.7337 38.8111 49.6739 39.7041ZM48.2798 39.1671C48.3437 38.5415 48.3526 38.1085 48.3065 37.8682C48.2642 37.6283 48.1774 37.4407 48.0459 37.3056C47.9714 37.2273 47.8662 37.1812 47.7302 37.1673C47.5281 37.1467 47.3528 37.2289 47.2043 37.414C46.9397 37.7364 46.7767 38.1988 46.7152 38.8012L46.6943 39.0052L48.2798 39.1671ZM52.454 37.4319L52.3808 38.1489C52.7133 37.853 53.0125 37.6539 53.2782 37.5514C53.5481 37.4455 53.8347 37.408 54.1378 37.439C54.4875 37.4747 54.7726 37.5863 54.993 37.7737C55.2133 37.9611 55.3706 38.2285 55.4647 38.5758C55.8113 38.2578 56.1344 38.0356 56.4339 37.9091C56.7374 37.783 57.0445 37.7359 57.3554 37.7676C57.7324 37.8061 58.0226 37.9241 58.2263 38.1216C58.4342 38.3156 58.5672 38.5511 58.6253 38.8279C58.6877 39.1013 58.6891 39.5295 58.6296 40.1124L58.4016 42.3449C58.3587 42.7646 58.369 43.0287 58.4325 43.1373C58.4999 43.2463 58.6525 43.3286 58.8903 43.3843L58.8688 43.5942L56.0534 43.3066L56.0749 43.0967C56.2983 43.0999 56.4703 43.0311 56.5907 42.8903C56.6714 42.7925 56.7309 42.5551 56.7694 42.1782L57.0088 39.8349C57.0584 39.3492 57.0705 39.0382 57.0452 38.9021C57.0198 38.766 56.9675 38.6625 56.8884 38.5916C56.8135 38.5172 56.7198 38.4743 56.6071 38.4628C56.44 38.4457 56.2646 38.4906 56.0809 38.5975C55.8976 38.7005 55.706 38.8655 55.5061 39.0924L55.2073 42.0186C55.1672 42.4111 55.175 42.6612 55.2307 42.769C55.3054 42.9219 55.4683 43.0191 55.7193 43.0604L55.6978 43.2703L52.8766 42.9821L52.898 42.7722C53.0504 42.78 53.1727 42.7551 53.2649 42.6978C53.3614 42.637 53.4281 42.5613 53.4648 42.4709C53.5058 42.3769 53.5426 42.1706 53.5751 41.8519L53.8145 39.5086C53.8649 39.0151 53.877 38.7042 53.8508 38.5759C53.8247 38.4475 53.7685 38.3436 53.6824 38.2642C53.6002 38.1851 53.5066 38.1402 53.4017 38.1295C53.2463 38.1136 53.1002 38.1399 52.9637 38.2084C52.7687 38.3102 52.5534 38.4963 52.3177 38.7668L52.0188 41.6929C51.9795 42.0777 51.9904 42.336 52.0515 42.4679C52.1169 42.5963 52.2689 42.6844 52.5075 42.7324L52.486 42.9422L49.6764 42.6552L49.6979 42.4454C49.9295 42.4455 50.1003 42.3883 50.2101 42.2739C50.2849 42.1951 50.3438 41.9459 50.3866 41.5262L50.701 38.4485C50.7431 38.0366 50.7304 37.7761 50.663 37.6671C50.5995 37.5586 50.4489 37.4764 50.2111 37.4207L50.2331 37.2051L52.454 37.4319ZM61.3189 43.2849L61.1117 45.3134C61.0831 45.5932 61.085 45.7858 61.1175 45.8912C61.1538 45.997 61.2162 46.078 61.3047 46.1341C61.3932 46.1903 61.5735 46.2322 61.8455 46.26L61.8234 46.4757L58.7166 46.1584L58.7386 45.9427C58.9803 45.9595 59.166 45.9098 59.2957 45.7934C59.3826 45.712 59.445 45.4848 59.4831 45.1117L60.0708 39.3584C60.1101 38.9737 60.0904 38.7243 60.0117 38.6103C59.9335 38.4923 59.7669 38.4125 59.512 38.3708L59.534 38.1551L61.819 38.3885L61.7458 39.1054C61.9648 38.8451 62.1797 38.6629 62.3906 38.5588C62.693 38.4051 63.0112 38.3453 63.3454 38.3795C63.7457 38.4203 64.0961 38.5838 64.3967 38.8697C64.7013 39.156 64.9162 39.5314 65.0415 39.9957C65.1673 40.4562 65.2039 40.9429 65.1515 41.4559C65.0952 42.0077 64.9542 42.5037 64.7286 42.944C64.5073 43.3808 64.2153 43.7024 63.8526 43.9088C63.4942 44.1117 63.109 44.1922 62.6971 44.1501C62.3979 44.1195 62.1248 44.0249 61.878 43.8662C61.694 43.7453 61.5076 43.5515 61.3189 43.2849ZM61.379 42.6961C61.6648 43.2044 61.9981 43.4779 62.3789 43.5168C62.5888 43.5383 62.773 43.4452 62.9317 43.2376C63.1671 42.9318 63.3316 42.3203 63.4253 41.4032C63.5213 40.4628 63.4763 39.8084 63.2901 39.4399C63.1659 39.1955 62.9794 39.0606 62.7307 39.0352C62.3382 38.9951 61.9867 39.2459 61.6761 39.7874L61.379 42.6961ZM68.5135 38.9073C68.9876 38.9558 69.4162 39.1232 69.7992 39.4097C70.1822 39.6962 70.4557 40.0756 70.6195 40.5478C70.7871 41.0204 70.8436 41.5248 70.7888 42.0611C70.7098 42.8344 70.4475 43.4614 70.0018 43.9421C69.4634 44.5232 68.7765 44.7711 67.941 44.6857C67.121 44.602 66.5189 44.2499 66.1347 43.6295C65.7504 43.0091 65.597 42.3201 65.6744 41.5623C65.7541 40.7812 66.049 40.1242 66.5589 39.5912C67.0731 39.0547 67.7247 38.8268 68.5135 38.9073ZM68.4946 39.3236C68.2964 39.3033 68.1177 39.3617 67.9584 39.4985C67.8034 39.6319 67.68 39.9177 67.5881 40.356C67.5005 40.7907 67.4166 41.4006 67.3364 42.1856C67.294 42.6014 67.2815 42.9928 67.299 43.3597C67.3135 43.64 67.3834 43.8592 67.5086 44.0172C67.6338 44.1753 67.7858 44.2635 67.9646 44.2817C68.1394 44.2996 68.2901 44.2659 68.4166 44.1807C68.5817 44.064 68.7016 43.8897 68.7763 43.6579C68.8917 43.2966 69.0068 42.5545 69.1215 41.4314C69.189 40.7708 69.1983 40.3143 69.1495 40.0619C69.1011 39.8057 69.0107 39.6139 68.8784 39.4865C68.7857 39.3946 68.6578 39.3403 68.4946 39.3236Z" fill="white"/>
<path d="M13.0643 43.4012L13.3877 44.6006C13.591 43.9591 13.8008 43.5142 14.017 43.2657C14.2322 43.0135 14.4623 42.8543 14.7075 42.7882C14.9187 42.7313 15.1043 42.752 15.2644 42.8505C15.4272 42.9441 15.5406 43.1098 15.6047 43.3474C15.6728 43.6001 15.6635 43.813 15.5767 43.9861C15.4936 44.1582 15.3653 44.2676 15.1918 44.3144C14.9919 44.3683 14.8012 44.3509 14.6195 44.2624C14.4378 44.1738 14.3318 44.1255 14.3013 44.1176C14.2575 44.1051 14.2111 44.1055 14.162 44.1187C14.0527 44.1482 13.9601 44.2177 13.8844 44.3271C13.7644 44.497 13.6968 44.7115 13.6817 44.9704C13.6596 45.3688 13.7081 45.7886 13.8271 46.2299L14.1551 47.4462L14.2461 47.7615C14.3041 47.9765 14.3544 48.1106 14.3971 48.1638C14.4698 48.2534 14.5562 48.3111 14.6561 48.3367C14.7589 48.3576 14.9173 48.3452 15.1316 48.2995L15.1865 48.5032L12.3296 49.2736L12.2747 49.0699C12.4996 48.989 12.6375 48.8851 12.6882 48.7581C12.7417 48.6264 12.7064 48.3304 12.5823 47.8703L11.7936 44.9455C11.7123 44.6438 11.6453 44.4555 11.5928 44.3806C11.5266 44.2852 11.4511 44.2226 11.3662 44.1929C11.2813 44.1632 11.1458 44.1633 10.9597 44.1933L10.9032 43.984L13.0643 43.4012ZM16.1841 39.8109C16.4293 39.7448 16.6601 39.7756 16.8766 39.9033C17.0921 40.0273 17.2324 40.2099 17.2974 40.4513C17.3625 40.6927 17.3312 40.9216 17.2035 41.1381C17.0795 41.3536 16.8969 41.4939 16.6555 41.559C16.4141 41.6241 16.1857 41.5946 15.9702 41.4707C15.7547 41.3467 15.6144 41.1641 15.5493 40.9227C15.4843 40.6813 15.5137 40.4529 15.6376 40.2374C15.7606 40.0181 15.9427 39.876 16.1841 39.8109ZM17.6672 42.1601L18.7976 46.3521C18.8983 46.7255 19.0062 46.9533 19.1214 47.0355C19.2356 47.114 19.4211 47.1267 19.6779 47.0736L19.7328 47.2773L16.8759 48.0477L16.8209 47.844C17.0528 47.7734 17.2079 47.6587 17.2865 47.5C17.3385 47.3929 17.3142 47.1527 17.2135 46.7793L16.3806 43.6904C16.2799 43.317 16.1725 43.0911 16.0583 43.0127C15.9431 42.9304 15.759 42.9154 15.506 42.9674L15.4495 42.7581L17.6672 42.1601ZM19.9889 39.4585L20.5106 41.3933L21.7665 41.0547L21.9176 41.6148L20.6617 41.9534L21.5419 45.2177C21.6242 45.5232 21.6908 45.7176 21.7416 45.801C21.7952 45.8796 21.8654 45.9376 21.9524 45.9748C22.0383 46.0083 22.1114 46.0169 22.1717 46.0006C22.4169 45.9345 22.5985 45.6853 22.7165 45.2529L22.9198 45.3316C22.8096 46.1381 22.4113 46.6339 21.7249 46.819C21.3892 46.9095 21.0795 46.8939 20.7958 46.7722C20.5149 46.6456 20.3114 46.476 20.1852 46.2632C20.113 46.1451 20.0005 45.8032 19.848 45.2375L19.0776 42.3806L18.3874 42.5667L18.334 42.3687C18.7187 41.9048 19.0272 41.4434 19.2594 40.9843C19.4954 40.5242 19.6763 40.0324 19.8022 39.5089L19.9889 39.4585ZM23.8693 44.2927C24.1333 44.2215 24.3807 44.2539 24.6116 44.3899C24.8462 44.5249 24.9986 44.7225 25.0688 44.9827C25.139 45.243 25.1066 45.4904 24.9716 45.725C24.8356 45.9559 24.6375 46.1064 24.3773 46.1766C24.117 46.2468 23.8701 46.2163 23.6365 46.0851C23.4056 45.9491 23.2551 45.751 23.1849 45.4907C23.1148 45.2305 23.1453 44.9836 23.2765 44.7499C23.4114 44.5153 23.609 44.3629 23.8693 44.2927Z" fill="white"/>
<path d="M47.7092 17.5681C46.9504 18.0354 46.3093 18.2237 45.7858 18.1331C45.4779 18.0798 45.2393 17.9354 45.0699 17.7C44.9012 17.4607 44.8432 17.189 44.8958 16.8849C44.9671 16.4731 45.2081 16.1342 45.6189 15.8683C46.0303 15.5986 46.8779 15.2934 48.1619 14.9527L48.2558 14.41C48.3264 14.002 48.3476 13.742 48.3194 13.6301C48.2958 13.515 48.229 13.4083 48.1191 13.31C48.01 13.2078 47.8784 13.1434 47.7244 13.1168C47.4742 13.0735 47.2587 13.0937 47.0777 13.1773C46.9656 13.2293 46.9016 13.3014 46.8856 13.3938C46.8716 13.4746 46.9082 13.584 46.9953 13.722C47.1129 13.9128 47.1584 14.0852 47.1318 14.2392C47.0991 14.4278 46.9999 14.5771 46.8342 14.6872C46.673 14.7941 46.4788 14.8279 46.2517 14.7886C46.0092 14.7466 45.8179 14.6382 45.6777 14.4632C45.5414 14.289 45.4902 14.1037 45.5242 13.9074C45.5721 13.6303 45.7275 13.3856 45.9902 13.1734C46.2535 12.9574 46.5932 12.8159 47.0091 12.7492C47.425 12.6824 47.8446 12.6857 48.268 12.7589C48.78 12.8476 49.1651 13.0272 49.4235 13.2979C49.6864 13.5654 49.8402 13.8338 49.8847 14.1032C49.9106 14.2742 49.8733 14.6503 49.7727 15.2315L49.41 17.3273C49.3673 17.5736 49.35 17.7312 49.3579 17.7999C49.3665 17.8648 49.3873 17.916 49.4205 17.9535C49.4537 17.9909 49.4953 18.014 49.5453 18.0226C49.6454 18.04 49.7597 17.9864 49.8883 17.862L50.0375 18.0305C49.7958 18.282 49.5596 18.4553 49.3291 18.5501C49.1031 18.6419 48.8593 18.6651 48.5976 18.6198C48.2896 18.5665 48.0614 18.4536 47.9128 18.2812C47.7649 18.105 47.6971 17.8673 47.7092 17.5681ZM47.7822 17.1466L48.0949 15.3395C47.5819 15.5322 47.1849 15.7647 46.9038 16.0372C46.7177 16.2191 46.6064 16.4159 46.5697 16.6275C46.5391 16.8046 46.5756 16.9715 46.6793 17.1282C46.7575 17.2488 46.8833 17.324 47.0565 17.354C47.2489 17.3873 47.4908 17.3182 47.7822 17.1466ZM54.7266 18.1702L54.8816 18.3397C54.545 18.773 54.1658 19.0741 53.7441 19.2429C53.3269 19.4086 52.9047 19.4544 52.4775 19.3805C51.7577 19.2559 51.2292 18.885 50.8921 18.2676C50.5549 17.6503 50.4523 16.9606 50.5842 16.1985C50.7114 15.4633 51.0197 14.8507 51.5089 14.3605C52.0989 13.7689 52.8096 13.545 53.641 13.6889C54.1991 13.7855 54.6174 14.0026 54.8959 14.3402C55.1783 14.6785 55.2895 15.0208 55.2296 15.3672C55.1916 15.5866 55.0939 15.7501 54.9366 15.8576C54.783 15.9659 54.5985 16.0013 54.383 15.964C54.1559 15.9247 53.9803 15.817 53.8561 15.6409C53.7359 15.4655 53.6917 15.1823 53.7237 14.7914C53.7426 14.5449 53.7161 14.3659 53.6442 14.2544C53.5723 14.1428 53.4767 14.0767 53.3574 14.0561C53.1726 14.0241 52.9978 14.0949 52.833 14.2686C52.5816 14.5303 52.4029 14.9672 52.2969 15.5792C52.209 16.0872 52.2056 16.5881 52.2866 17.0818C52.3683 17.5717 52.53 17.9545 52.7717 18.2302C52.9548 18.4324 53.1906 18.5584 53.4793 18.6084C53.6679 18.641 53.8545 18.6277 54.0392 18.5685C54.2239 18.5093 54.453 18.3765 54.7266 18.1702ZM59.5568 19.0062L59.7118 19.1757C59.3752 19.609 58.996 19.9101 58.5743 20.0789C58.1571 20.2446 57.7349 20.2904 57.3077 20.2165C56.5879 20.0919 56.0595 19.721 55.7223 19.1036C55.3851 18.4863 55.2825 17.7966 55.4144 17.0345C55.5417 16.2993 55.8499 15.6867 56.3391 15.1965C56.9291 14.6049 57.6398 14.381 58.4712 14.5249C59.0293 14.6215 59.4476 14.8386 59.7261 15.1762C60.0085 15.5145 60.1197 15.8568 60.0598 16.2032C60.0218 16.4226 59.9241 16.5861 59.7668 16.6937C59.6133 16.8019 59.4287 16.8373 59.2132 16.8C58.9861 16.7607 58.8105 16.653 58.6864 16.4769C58.5661 16.3015 58.5219 16.0183 58.5539 15.6274C58.5728 15.3809 58.5463 15.2019 58.4744 15.0904C58.4025 14.9788 58.3069 14.9127 58.1876 14.8921C58.0029 14.8601 57.8281 14.9309 57.6632 15.1046C57.4118 15.3663 57.2331 15.8032 57.1272 16.4152C57.0392 16.9233 57.0358 17.4241 57.1168 17.9179C57.1986 18.4077 57.3602 18.7905 57.6019 19.0662C57.785 19.2684 58.0208 19.3944 58.3095 19.4444C58.4981 19.477 58.6848 19.4638 58.8694 19.4045C59.0541 19.3453 59.2832 19.2125 59.5568 19.0062ZM64.8143 18.37L61.8525 17.8574C61.7632 18.5793 61.8558 19.1781 62.1302 19.6538C62.3405 20.0192 62.6324 20.2342 63.0057 20.2988C63.2367 20.3388 63.4574 20.3116 63.668 20.2172C63.8793 20.119 64.1216 19.9211 64.3951 19.6236L64.5695 19.7846C64.1737 20.3305 63.7771 20.698 63.3797 20.8869C62.9829 21.0719 62.5517 21.1241 62.0859 21.0435C61.2853 20.905 60.7324 20.4921 60.4272 19.805C60.1821 19.2512 60.1232 18.6067 60.2504 17.8715C60.4063 16.9708 60.7727 16.2969 61.3496 15.8497C61.931 15.3993 62.5489 15.2307 63.2032 15.3439C63.7498 15.4385 64.1843 15.7456 64.5066 16.2653C64.8335 16.7817 64.936 17.4833 64.8143 18.37ZM63.4609 17.7374C63.5682 17.1177 63.6072 16.6864 63.5779 16.4435C63.5524 16.2012 63.4788 16.0081 63.357 15.8641C63.2882 15.7808 63.1864 15.7275 63.0517 15.7042C62.8515 15.6696 62.671 15.7394 62.51 15.9137C62.2236 16.217 62.0288 16.6669 61.9255 17.2635L61.8905 17.4656L63.4609 17.7374ZM68.0394 13.844L66.8782 20.5528C66.8122 20.9339 66.8142 21.186 66.8841 21.3091C66.9546 21.4283 67.1175 21.5179 67.3727 21.578L67.3367 21.7858L64.4211 21.2812L64.4571 21.0733C64.6971 21.1069 64.8861 21.0683 65.0242 20.9574C65.1165 20.8822 65.1956 20.6541 65.2616 20.273L66.2289 14.6843C66.2942 14.3071 66.2916 14.0588 66.221 13.9396C66.1512 13.8165 65.9905 13.7253 65.7392 13.6659L65.7761 13.4523L68.0394 13.844ZM68.8259 20.212C69.0953 20.2587 69.3061 20.3923 69.4582 20.6129C69.6141 20.8341 69.6691 21.0775 69.6232 21.3431C69.5772 21.6087 69.4436 21.8195 69.2223 21.9754C69.0018 22.1275 68.7587 22.1806 68.4931 22.1346C68.2275 22.0887 68.0164 21.957 67.8598 21.7396C67.7077 21.519 67.6546 21.2759 67.7006 21.0103C67.7465 20.7448 67.8782 20.5337 68.0956 20.377C68.3169 20.2211 68.5603 20.1661 68.8259 20.212Z" fill="white"/>
</svg>
