<svg width="70" height="70" viewBox="0 0 70 70" fill="none" xmlns="http://www.w3.org/2000/svg">
<path d="M33.548 25.368C33.2493 24.2373 33.004 23.1173 32.812 22.008C32.62 20.8987 32.524 19.768 32.524 18.616C32.524 17.6133 32.588 16.6747 32.716 15.8C32.8653 14.904 33.068 14.0827 33.324 13.336C33.6013 12.4827 33.964 11.6827 34.412 10.936C34.86 10.168 35.3293 9.53866 35.82 9.048C36.332 8.55733 36.78 8.312 37.164 8.312C37.676 8.312 38.38 9.21866 39.276 11.032C39.724 11.9493 40.0547 12.9413 40.268 14.008C40.4813 15.0747 40.588 16.216 40.588 17.432C40.588 18.9467 40.3853 20.4613 39.98 21.976C39.5747 23.4693 38.9773 24.8773 38.188 26.2C37.42 27.5227 36.492 28.6853 35.404 29.688L36.524 35.064C36.844 35.0213 37.1107 34.9893 37.324 34.968C37.5373 34.9467 37.6973 34.936 37.804 34.936C39.1053 34.936 40.268 35.3093 41.292 36.056C42.316 36.7813 43.1267 37.7413 43.724 38.936C44.3427 40.1307 44.652 41.4427 44.652 42.872C44.652 44.5147 44.2253 45.9973 43.372 47.32C42.54 48.6213 41.2813 49.5813 39.596 50.2C39.7027 50.5627 40.012 52.0773 40.524 54.744C40.652 55.384 40.748 55.8853 40.812 56.248C40.876 56.632 40.9187 56.9627 40.94 57.24C40.9613 57.5173 40.972 57.8373 40.972 58.2C40.972 59.2667 40.7053 60.216 40.172 61.048C39.66 61.9013 38.956 62.5627 38.06 63.032C37.1853 63.5013 36.204 63.736 35.116 63.736C34.0067 63.736 33.0253 63.5227 32.172 63.096C31.3187 62.6907 30.6467 62.1147 30.156 61.368C29.6653 60.6427 29.42 59.8 29.42 58.84C29.42 57.816 29.6973 56.9627 30.252 56.28C30.828 55.5973 31.6387 55.256 32.684 55.256C33.58 55.256 34.3053 55.576 34.86 56.216C35.436 56.8773 35.724 57.656 35.724 58.552C35.724 59.32 35.4573 59.992 34.924 60.568C34.3907 61.144 33.6973 61.432 32.844 61.432H32.524C33.0787 62.264 33.9533 62.68 35.148 62.68C36.62 62.68 37.772 62.2 38.604 61.24C39.436 60.28 39.852 59.0533 39.852 57.56C39.852 57.1973 39.8093 56.7067 39.724 56.088C39.6387 55.4907 39.4893 54.7653 39.276 53.912C39.0627 53.0587 38.892 52.3547 38.764 51.8C38.6573 51.2453 38.5827 50.8507 38.54 50.616C37.8147 50.8293 36.9613 50.936 35.98 50.936C34.1453 50.936 32.3533 50.4027 30.604 49.336C28.8973 48.2693 27.5533 46.8613 26.572 45.112C25.5907 43.3627 25.1 41.4747 25.1 39.448C25.1 37.528 25.5373 35.7253 26.412 34.04C27.2867 32.3547 28.364 30.808 29.644 29.4C30.9453 27.992 32.2467 26.648 33.548 25.368ZM34.412 24.568C34.9027 24.312 35.4253 23.8427 35.98 23.16C36.5347 22.456 37.068 21.656 37.58 20.76C38.092 19.864 38.508 18.968 38.828 18.072C39.148 17.1547 39.308 16.3333 39.308 15.608C39.308 14.84 39.1907 14.232 38.956 13.784C38.7213 13.336 38.316 13.112 37.74 13.112C37.228 13.112 36.7267 13.3467 36.236 13.816C35.7667 14.2853 35.34 14.9147 34.956 15.704C34.5933 16.472 34.3053 17.336 34.092 18.296C33.8787 19.256 33.772 20.2373 33.772 21.24C33.772 21.9227 33.836 22.5413 33.964 23.096C34.1133 23.6507 34.2627 24.1413 34.412 24.568ZM36.236 38.872C35.66 39 35.116 39.2773 34.604 39.704C34.092 40.1093 33.676 40.6107 33.356 41.208C33.0573 41.784 32.908 42.4027 32.908 43.064C32.908 43.5973 33.0467 44.152 33.324 44.728C33.6013 45.2827 33.9427 45.7307 34.348 46.072C34.6253 46.328 34.9027 46.52 35.18 46.648C35.5 46.7973 35.66 46.936 35.66 47.064C35.66 47.128 35.5533 47.192 35.34 47.256C34.5293 47.064 33.7933 46.7013 33.132 46.168C32.492 45.6347 31.98 44.9947 31.596 44.248C31.2333 43.48 31.052 42.6693 31.052 41.816C31.052 40.8987 31.2333 40.0133 31.596 39.16C31.98 38.3067 32.5027 37.5387 33.164 36.856C33.8467 36.1733 34.6147 35.6613 35.468 35.32L34.54 30.488C32.0653 32.4933 30.2413 34.4667 29.068 36.408C27.916 38.328 27.34 40.2373 27.34 42.136C27.34 43.5227 27.7027 44.8133 28.428 46.008C29.1533 47.2027 30.1453 48.1733 31.404 48.92C32.6627 49.6453 34.0813 50.008 35.66 50.008C36.0867 50.008 36.5133 49.9653 36.94 49.88C37.388 49.7947 37.8573 49.688 38.348 49.56L36.236 38.872ZM39.34 49.24C41.4307 48.344 42.476 46.5093 42.476 43.736C42.476 42.8187 42.2413 41.9867 41.772 41.24C41.3027 40.472 40.6733 39.864 39.884 39.416C39.0947 38.968 38.2093 38.744 37.228 38.744L39.34 49.24Z" fill="white"/>
</svg>
