<svg width="80" height="60" viewBox="0 0 80 60" fill="none" xmlns="http://www.w3.org/2000/svg">
<path d="M12.6 35.18C12.6 34.3907 12.888 33.6973 13.464 33.1C14.04 32.5027 14.8187 32.0333 15.8 31.692C16.8027 31.3507 17.9013 31.18 19.096 31.18C20.312 31.18 21.432 31.3507 22.456 31.692C23.48 32.012 24.3013 32.4707 24.92 33.068C25.5387 33.6653 25.848 34.3693 25.848 35.18C25.848 36.012 25.5493 36.7373 24.952 37.356C24.3547 37.9533 23.5547 38.4227 22.552 38.764C21.5707 39.084 20.4827 39.244 19.288 39.244C18.0933 39.244 16.984 39.084 15.96 38.764C14.9573 38.444 14.1467 37.9853 13.528 37.388C12.9093 36.7693 12.6 36.0333 12.6 35.18ZM19.96 38.604C20.6853 38.604 21.176 38.3373 21.432 37.804C21.7093 37.2707 21.848 36.6413 21.848 35.916C21.848 35.1693 21.688 34.4867 21.368 33.868C21.0693 33.2493 20.664 32.7587 20.152 32.396C19.64 32.012 19.064 31.82 18.424 31.82C17.6987 31.82 17.208 32.0867 16.952 32.62C16.7173 33.1533 16.6 33.7827 16.6 34.508C16.6 35.2333 16.7493 35.9053 17.048 36.524C17.3467 37.1427 17.7413 37.644 18.232 38.028C18.744 38.412 19.32 38.604 19.96 38.604Z" fill="white"/>
<path d="M33.6 31.68C33.6 30.8907 33.888 30.1973 34.464 29.6C35.04 29.0027 35.8187 28.5333 36.8 28.192C37.8027 27.8507 38.9013 27.68 40.096 27.68C41.312 27.68 42.432 27.8507 43.456 28.192C44.48 28.512 45.3013 28.9707 45.92 29.568C46.5387 30.1653 46.848 30.8693 46.848 31.68C46.848 32.512 46.5493 33.2373 45.952 33.856C45.3547 34.4533 44.5547 34.9227 43.552 35.264C42.5707 35.584 41.4827 35.744 40.288 35.744C39.0933 35.744 37.984 35.584 36.96 35.264C35.9573 34.944 35.1467 34.4853 34.528 33.888C33.9093 33.2693 33.6 32.5333 33.6 31.68ZM40.96 35.104C41.6853 35.104 42.176 34.8373 42.432 34.304C42.7093 33.7707 42.848 33.1413 42.848 32.416C42.848 31.6693 42.688 30.9867 42.368 30.368C42.0693 29.7493 41.664 29.2587 41.152 28.896C40.64 28.512 40.064 28.32 39.424 28.32C38.6987 28.32 38.208 28.5867 37.952 29.12C37.7173 29.6533 37.6 30.2827 37.6 31.008C37.6 31.7333 37.7493 32.4053 38.048 33.024C38.3467 33.6427 38.7413 34.144 39.232 34.528C39.744 34.912 40.32 35.104 40.96 35.104Z" fill="white"/>
<path d="M52.6 27.68C52.6 26.8907 52.888 26.1973 53.464 25.6C54.04 25.0027 54.8187 24.5333 55.8 24.192C56.8027 23.8507 57.9013 23.68 59.096 23.68C60.312 23.68 61.432 23.8507 62.456 24.192C63.48 24.512 64.3013 24.9707 64.92 25.568C65.5387 26.1653 65.848 26.8693 65.848 27.68C65.848 28.512 65.5493 29.2373 64.952 29.856C64.3547 30.4533 63.5547 30.9227 62.552 31.264C61.5707 31.584 60.4827 31.744 59.288 31.744C58.0933 31.744 56.984 31.584 55.96 31.264C54.9573 30.944 54.1467 30.4853 53.528 29.888C52.9093 29.2693 52.6 28.5333 52.6 27.68ZM59.96 31.104C60.6853 31.104 61.176 30.8373 61.432 30.304C61.7093 29.7707 61.848 29.1413 61.848 28.416C61.848 27.6693 61.688 26.9867 61.368 26.368C61.0693 25.7493 60.664 25.2587 60.152 24.896C59.64 24.512 59.064 24.32 58.424 24.32C57.6987 24.32 57.208 24.5867 56.952 25.12C56.7173 25.6533 56.6 26.2827 56.6 27.008C56.6 27.7333 56.7493 28.4053 57.048 29.024C57.3467 29.6427 57.7413 30.144 58.232 30.528C58.744 30.912 59.32 31.104 59.96 31.104Z" fill="white"/>
<path d="M11.6 16.268V15.5H43.6V16.268H11.6ZM11.6 24.076V23.308H43.6V24.076H11.6ZM11.6 31.884V31.116H43.6V31.884H11.6ZM11.6 39.692V38.924H43.6V39.692H11.6ZM11.6 47.5V46.732H43.6V47.5H11.6ZM36.7875 16.268V15.5H68.7875V16.268H36.7875ZM36.7875 24.076V23.308H68.7875V24.076H36.7875ZM36.7875 31.884V31.116H68.7875V31.884H36.7875ZM36.7875 39.692V38.924H68.7875V39.692H36.7875ZM36.7875 47.5V46.732H68.7875V47.5H36.7875Z" fill="white"/>
</svg>
