<svg width="80" height="60" viewBox="0 0 80 60" fill="none" xmlns="http://www.w3.org/2000/svg">
<path d="M15.7118 43.8865L15.9111 44.0007C15.7225 44.516 15.453 44.9183 15.1028 45.2075C14.7559 45.4924 14.3678 45.6647 13.9383 45.7244C13.2148 45.825 12.5984 45.6326 12.0893 45.1473C11.5801 44.6621 11.2722 44.0364 11.1657 43.2703C11.063 42.5313 11.1699 41.8539 11.4866 41.238C11.8683 40.4948 12.477 40.065 13.3128 39.9488C13.8738 39.8708 14.3383 39.9502 14.7065 40.1869C15.0785 40.4231 15.2887 40.7153 15.3371 41.0635C15.3678 41.284 15.3245 41.4695 15.2074 41.6199C15.0942 41.7697 14.9292 41.8597 14.7125 41.8898C14.4843 41.9216 14.2842 41.8725 14.1123 41.7426C13.9443 41.6121 13.816 41.3558 13.7274 40.9738C13.6703 40.7333 13.5905 40.5708 13.4881 40.4865C13.3856 40.4021 13.2744 40.3683 13.1545 40.385C12.9688 40.4108 12.8239 40.5315 12.7198 40.7471C12.56 41.073 12.5229 41.5435 12.6084 42.1587C12.6794 42.6694 12.8287 43.1475 13.0563 43.5931C13.2834 44.0348 13.554 44.3501 13.8682 44.5391C14.1041 44.6759 14.3671 44.7241 14.6573 44.6838C14.8469 44.6574 15.0206 44.5879 15.1785 44.4753C15.3363 44.3626 15.5141 44.1663 15.7118 43.8865ZM17.8309 39.4863L18.0019 40.7167C18.2837 40.1056 18.5474 39.6904 18.793 39.4709C19.038 39.2475 19.2862 39.1183 19.5377 39.0834C19.7544 39.0532 19.936 39.097 20.0825 39.2147C20.2323 39.3279 20.3242 39.5064 20.3581 39.7502C20.3941 40.0094 20.3582 40.2195 20.2505 40.3804C20.1466 40.5407 20.0056 40.6333 19.8276 40.658C19.6226 40.6866 19.4355 40.6455 19.2663 40.535C19.0971 40.4244 18.9979 40.3632 18.9687 40.3515C18.9267 40.3337 18.8806 40.3283 18.8303 40.3353C18.7181 40.3509 18.6177 40.4082 18.5289 40.5073C18.3886 40.6609 18.2947 40.8653 18.2473 41.1203C18.1757 41.5128 18.1714 41.9354 18.2343 42.3881L18.4078 43.6358L18.4588 43.96C18.4894 44.1806 18.5226 44.3199 18.5583 44.3781C18.6193 44.4761 18.6977 44.544 18.7937 44.582C18.893 44.6155 19.0518 44.623 19.2701 44.6045L19.2991 44.8134L16.3684 45.2209L16.3393 45.0119C16.5726 44.9598 16.7224 44.8739 16.7886 44.7543C16.8581 44.6302 16.86 44.3322 16.7944 43.8602L16.3772 40.8597C16.3342 40.5502 16.2913 40.355 16.2485 40.2742C16.1947 40.1713 16.1276 40.0998 16.0471 40.0597C15.9666 40.0196 15.8322 40.0028 15.6438 40.0093L15.6139 39.7945L17.8309 39.4863ZM25.381 41.004L22.4038 41.4179C22.5387 42.1327 22.8093 42.6749 23.2156 43.0443C23.5272 43.3283 23.8706 43.4442 24.2459 43.392C24.4781 43.3598 24.6801 43.2666 24.8519 43.1126C25.0232 42.9547 25.1938 42.6924 25.3636 42.3256L25.5787 42.4259C25.368 43.0664 25.1022 43.5372 24.7812 43.8382C24.4597 44.1353 24.0649 44.3164 23.5967 44.3815C22.792 44.4934 22.1395 44.2686 21.6395 43.7071C21.2374 43.2543 20.9849 42.6584 20.8822 41.9194C20.7563 41.014 20.9 40.2605 21.3133 39.6588C21.7298 39.0527 22.267 38.7039 22.9247 38.6124C23.4741 38.536 23.9815 38.6962 24.4468 39.093C24.9155 39.4853 25.2269 40.1223 25.381 41.004ZM23.8993 40.8137C23.8127 40.1907 23.7184 39.7681 23.6165 39.5456C23.5184 39.3226 23.3895 39.1611 23.2297 39.061C23.1387 39.0027 23.0256 38.9829 22.8901 39.0018C22.689 39.0297 22.5382 39.1513 22.438 39.3663C22.2576 39.7424 22.2091 40.2303 22.2925 40.83L22.3207 41.0331L23.8993 40.8137ZM28.6986 37.8215L29.0431 39.6607L28.8458 39.6881C28.5334 39.1716 28.2355 38.8304 27.9522 38.6647C27.6727 38.4985 27.4073 38.4329 27.1558 38.4678C26.9971 38.4899 26.8693 38.5629 26.7721 38.6868C26.6744 38.8069 26.6353 38.9366 26.6546 39.0759C26.6692 39.1803 26.7218 39.2755 26.8127 39.3615C26.9585 39.5029 27.3427 39.7275 27.9653 40.0354C28.5873 40.3393 29.0061 40.6143 29.2217 40.8604C29.4407 41.1021 29.5733 41.3893 29.6196 41.7221C29.6615 42.0238 29.6272 42.3303 29.5167 42.6415C29.4061 42.9526 29.2243 43.2047 28.9711 43.3976C28.7179 43.5906 28.425 43.7102 28.0922 43.7565C27.833 43.7925 27.4754 43.7594 27.0195 43.6572C26.8975 43.6307 26.8152 43.6205 26.7727 43.6264C26.645 43.6441 26.552 43.7557 26.4938 43.961L26.3023 43.9876L25.9383 42.0505L26.1356 42.0231C26.3808 42.5096 26.672 42.8595 27.0093 43.0729C27.3504 43.2858 27.6564 43.3734 27.9272 43.3357C28.1129 43.3099 28.256 43.2328 28.3565 43.1045C28.4603 42.9717 28.5009 42.8241 28.4783 42.6616C28.4525 42.4759 28.3721 42.3234 28.2372 42.2041C28.1023 42.0848 27.8146 41.9158 27.374 41.6971C26.7251 41.3693 26.2984 41.1091 26.0942 40.9167C25.7947 40.6349 25.6184 40.3025 25.5651 39.9195C25.507 39.5016 25.5977 39.1045 25.8372 38.7281C26.0801 38.3473 26.4743 38.1189 27.0198 38.0431C27.3139 38.0022 27.6082 38.0342 27.9028 38.1392C28.0153 38.1827 28.1045 38.1999 28.1702 38.1907C28.2399 38.1811 28.2941 38.1597 28.3329 38.1267C28.3712 38.0898 28.4273 37.9972 28.5013 37.8489L28.6986 37.8215ZM34.4832 41.2766L34.6824 41.3908C34.4938 41.9061 34.2243 42.3084 33.8741 42.5976C33.5272 42.8825 33.1391 43.0548 32.7096 43.1145C31.9861 43.2151 31.3697 43.0227 30.8606 42.5374C30.3514 42.0522 30.0435 41.4265 29.937 40.6604C29.8343 39.9214 29.9412 39.244 30.2579 38.6281C30.6396 37.8849 31.2484 37.4551 32.0841 37.339C32.6451 37.261 33.1096 37.3403 33.4778 37.577C33.8498 37.8132 34.06 38.1054 34.1084 38.4536C34.1391 38.6741 34.0958 38.8596 33.9787 39.01C33.8655 39.1598 33.7005 39.2498 33.4838 39.2799C33.2556 39.3117 33.0555 39.2626 32.8836 39.1327C32.7156 39.0022 32.5873 38.7459 32.4987 38.3639C32.4416 38.1234 32.3618 37.9609 32.2594 37.8766C32.1569 37.7922 32.0458 37.7584 31.9258 37.7751C31.7401 37.8009 31.5952 37.9216 31.4911 38.1372C31.3313 38.4631 31.2942 38.9336 31.3797 39.5488C31.4507 40.0595 31.6 40.5377 31.8276 40.9832C32.0547 41.4249 32.3253 41.7402 32.6395 41.9293C32.8754 42.066 33.1384 42.1143 33.4286 42.0739C33.6182 42.0475 33.7919 41.978 33.9498 41.8654C34.1077 41.7527 34.2854 41.5565 34.4832 41.2766ZM35.9416 40.6774C36.2124 40.6398 36.4539 40.7028 36.6659 40.8666C36.8819 41.0298 37.0084 41.2449 37.0455 41.5119C37.0826 41.7788 37.0196 42.0203 36.8564 42.2362C36.6926 42.4483 36.4772 42.5729 36.2103 42.61C35.9433 42.6471 35.7021 42.586 35.4867 42.4267C35.2747 42.2629 35.1501 42.0475 35.1129 41.7806C35.0758 41.5136 35.1369 41.2724 35.2963 41.057C35.4595 40.8411 35.6746 40.7145 35.9416 40.6774Z" fill="white"/>
<path d="M11.5858 17.3134L13.3491 14.0273C13.4161 13.9038 13.4592 13.7768 13.4787 13.6462C13.4999 13.5038 13.4571 13.4246 13.3503 13.4087C13.1485 13.3787 12.8787 13.5205 12.5408 13.8341C12.2165 14.1377 11.9066 14.5889 11.6112 15.1879L11.1127 15.1137C11.6036 14.1798 12.0987 13.5438 12.598 13.2057C13.0973 12.8675 13.6021 12.7365 14.1124 12.8125C14.3498 12.8479 14.5258 12.9287 14.6405 13.055C14.767 13.183 14.8117 13.3716 14.7746 13.6209C14.9708 13.4439 15.2032 13.3086 15.4719 13.2152C15.7406 13.1218 16.0293 13.098 16.3379 13.144C16.5634 13.1776 16.7504 13.2661 16.8989 13.4096C17.061 13.5429 17.1244 13.7283 17.089 13.9656C17.3297 13.7346 17.5936 13.5919 17.8807 13.5376C18.1696 13.4714 18.409 13.4525 18.5989 13.4808C18.8482 13.5179 19.0429 13.5955 19.183 13.7134C19.3351 13.8331 19.3934 14.0116 19.358 14.249C19.3457 14.3321 19.3188 14.4312 19.2774 14.5464C19.2359 14.6615 19.1998 14.7411 19.169 14.785L18.0356 17.0184C17.9841 17.1199 17.9326 17.2214 17.881 17.323C17.8414 17.4262 17.8145 17.5254 17.8004 17.6203C17.7738 17.7984 17.8318 17.898 17.9742 17.9192C18.1285 17.9422 18.3355 17.8153 18.5951 17.5385C18.7249 17.4001 18.8642 17.2389 19.0129 17.0548C19.1616 16.8707 19.3148 16.6569 19.4724 16.4135L19.8732 16.6552C19.4449 17.3314 19.038 17.8229 18.6526 18.1294C18.2809 18.4259 17.8458 18.537 17.3473 18.4628C17.015 18.4133 16.7644 18.3032 16.5958 18.1324C16.4288 17.9498 16.3675 17.7102 16.4117 17.4135C16.4364 17.2473 16.503 17.0449 16.6113 16.8063C16.7214 16.5557 16.8091 16.3747 16.8742 16.2631L17.7315 14.6619C17.8173 14.4927 17.8638 14.3844 17.8709 14.3369C17.8956 14.1707 17.8308 14.0761 17.6765 14.0532C17.5341 14.0319 17.398 14.0905 17.2682 14.2289C17.1384 14.3673 16.9817 14.6048 16.7981 14.9414L15.1821 17.8491L13.74 17.6343L15.5905 14.252C15.6319 14.1368 15.6562 14.0555 15.6632 14.008C15.688 13.8419 15.6232 13.7473 15.4689 13.7243C15.2434 13.6907 15.038 13.8482 14.8526 14.1967L13.0456 17.5308L11.5858 17.3134ZM19.9918 16.4363L19.4933 16.362C20.0893 15.4559 20.625 14.8321 21.1006 14.4904C21.5779 14.1368 22.0776 13.999 22.5999 14.0768C22.9085 14.1227 23.1243 14.2216 23.2472 14.3734C23.3839 14.515 23.4499 14.6826 23.4453 14.876C23.5953 14.7649 23.8065 14.6508 24.0787 14.5336C24.3509 14.4164 24.6592 14.3835 25.0034 14.4348C25.5375 14.5143 25.8967 14.7498 26.081 15.1413C26.279 15.5226 26.3382 15.9803 26.2587 16.5144C26.1809 17.0366 25.9743 17.5276 25.6389 17.9872C25.3053 18.4349 24.901 18.7872 24.426 19.044C23.9646 19.2907 23.4906 19.3778 23.004 19.3053C22.7666 19.27 22.5481 19.1889 22.3486 19.0621C22.161 18.9371 22.0196 18.7462 21.9244 18.4894L20.758 20.6997C20.6757 20.8451 20.6275 20.9653 20.6133 21.0603C20.5974 21.1671 20.6903 21.2355 20.8921 21.2656L21.6577 21.3796L21.5755 21.9315L17.6231 21.3428L17.7053 20.7909L18.4174 20.897C18.6429 20.9306 18.8034 20.912 18.8989 20.8413C18.9943 20.7706 19.0995 20.6346 19.2144 20.4333L21.9559 15.3457C22.0572 15.1546 22.114 15.0174 22.1264 14.9344C22.1493 14.7801 22.0956 14.6932 21.965 14.6737C21.787 14.6472 21.547 14.751 21.2453 14.9851C20.9435 15.2192 20.6471 15.539 20.3562 15.9446L19.9918 16.4363ZM22.3911 17.922C22.3221 18.3849 22.4301 18.6375 22.7149 18.6799C22.9049 18.7082 23.1133 18.6119 23.3404 18.3909C23.5674 18.17 23.7905 17.8938 24.0097 17.5625C24.2307 17.2193 24.416 16.8708 24.5658 16.517C24.7274 16.165 24.8259 15.8703 24.8613 15.6329C24.9196 15.2412 24.8123 15.0251 24.5393 14.9844C24.3138 14.9508 24.0792 15.019 23.8355 15.1889C23.6037 15.3607 23.3859 15.6012 23.1821 15.9105C22.9919 16.2098 22.8219 16.5363 22.6722 16.8901C22.5343 17.2457 22.4406 17.5896 22.3911 17.922Z" fill="white"/>
<path d="M34.5179 29.093L65.6464 11.0072L65.8564 11.363L37.9358 27.5388L67.064 17.7528L67.0111 18.2282L34.5179 29.093Z" fill="white"/>
<path d="M56.3895 42.0132C56.5152 41.4453 56.7255 40.9122 57.0206 40.4138C57.3158 39.9153 57.6679 39.5048 58.077 39.1823C58.496 38.8459 58.9424 38.6388 59.416 38.561C59.9015 38.4813 60.2575 38.5383 60.4839 38.7322C60.7202 38.9123 60.8646 39.1622 60.9171 39.4819C60.9619 39.7543 60.908 40.0185 60.7555 40.2746C60.603 40.5307 60.4083 40.6782 60.1715 40.7171C59.7333 40.7891 59.4793 40.6119 59.4092 40.1856C59.3937 40.0909 59.3959 39.9932 59.4159 39.8927C59.4339 39.7803 59.4953 39.6729 59.6001 39.5705C59.693 39.4701 59.8008 39.3856 59.9232 39.3168C60.0438 39.2362 60.1021 39.1841 60.0982 39.1604C60.0924 39.1249 60.0392 39.0971 59.9386 39.0772C59.8873 39.0612 59.8311 39.0522 59.77 39.0501C59.7088 39.048 59.6486 39.0518 59.5894 39.0615C59.1868 39.1277 58.8509 39.3774 58.5816 39.8108C58.3122 40.2442 58.144 40.8859 58.0769 41.7361L59.6222 41.4822L59.7185 42.0684L58.0134 42.3485C57.906 43.5457 57.7526 44.6106 57.5531 45.5433C57.3517 46.4641 57.0904 47.2428 56.7693 47.8792C56.141 49.162 55.4005 49.8735 54.5479 50.0135C54.1216 50.0835 53.7815 50.0117 53.5275 49.798C53.2735 49.5844 53.1183 49.3059 53.0619 48.9625C52.9997 48.5835 53.0418 48.2848 53.1883 48.0661C53.3348 47.8475 53.5442 47.7158 53.8166 47.6711C54.0534 47.6322 54.2555 47.678 54.4229 47.8086C54.5765 47.9293 54.6708 48.0962 54.7058 48.3094C54.7233 48.4159 54.727 48.5126 54.7169 48.5994C54.7069 48.6862 54.6682 48.7837 54.6008 48.8921C54.5316 48.9886 54.4663 49.0723 54.4049 49.1432C54.3436 49.214 54.2863 49.2721 54.2329 49.3173C54.1894 49.3488 54.1725 49.3941 54.1823 49.4534C54.192 49.5126 54.2857 49.5276 54.4633 49.4984C54.8304 49.4381 55.1191 49.1596 55.3293 48.663C55.4345 48.4147 55.5339 48.0943 55.6275 47.7019C55.7192 47.2977 55.7873 46.8609 55.8318 46.3915L56.0856 44.1609C56.1584 43.4193 56.2267 42.9095 56.2904 42.6314L55.0826 42.8298L54.9863 42.2437L56.3895 42.0132ZM61.5759 41.1613C61.7015 40.5935 61.9119 40.0603 62.207 39.5619C62.5021 39.0635 62.8542 38.653 63.2634 38.3304C63.6824 37.994 64.1287 37.7869 64.6024 37.7091C65.0879 37.6294 65.4438 37.6865 65.6703 37.8803C65.9066 38.0604 66.051 38.3103 66.1035 38.63C66.1482 38.9024 66.0943 39.1666 65.9418 39.4227C65.7893 39.6788 65.5947 39.8263 65.3578 39.8652C64.9197 39.9372 64.6656 39.76 64.5956 39.3337C64.5801 39.239 64.5823 39.1413 64.6022 39.0408C64.6202 38.9284 64.6816 38.821 64.7864 38.7187C64.8794 38.6183 64.9871 38.5337 65.1096 38.4649C65.2301 38.3843 65.2884 38.3322 65.2846 38.3085C65.2787 38.273 65.2255 38.2452 65.125 38.2253C65.0737 38.2094 65.0175 38.2004 64.9563 38.1982C64.8952 38.1961 64.835 38.1999 64.7758 38.2097C64.3732 38.2758 64.0372 38.5255 63.7679 38.9589C63.4986 39.3923 63.3304 40.0341 63.2633 40.8842L64.8086 40.6303L64.9049 41.2165L63.1997 41.4966C63.0923 42.6938 62.9389 43.7588 62.7395 44.6914C62.538 45.6122 62.2768 46.3909 61.9557 47.0273C61.3273 48.3101 60.5868 49.0216 59.7343 49.1616C59.308 49.2316 58.9678 49.1598 58.7138 48.9462C58.4599 48.7325 58.3047 48.454 58.2483 48.1106C58.186 47.7316 58.2281 47.4329 58.3746 47.2142C58.5211 46.9956 58.7306 46.8639 59.0029 46.8192C59.2397 46.7803 59.4419 46.8261 59.6092 46.9567C59.7628 47.0774 59.8571 47.2443 59.8921 47.4575C59.9096 47.5641 59.9134 47.6607 59.9033 47.7475C59.8932 47.8343 59.8545 47.9319 59.7872 48.0402C59.7179 48.1367 59.6526 48.2204 59.5913 48.2913C59.53 48.3622 59.4726 48.4202 59.4193 48.4655C59.3758 48.4969 59.3589 48.5423 59.3686 48.6015C59.3784 48.6607 59.472 48.6757 59.6497 48.6465C60.0167 48.5862 60.3054 48.3077 60.5157 47.8111C60.6208 47.5628 60.7202 47.2424 60.8139 46.8501C60.9056 46.4459 60.9737 46.009 61.0182 45.5396L61.272 43.309C61.3447 42.5674 61.413 42.0576 61.4768 41.7796L60.269 41.978L60.1727 41.3918L61.5759 41.1613ZM66.7623 40.3094C66.8879 39.7416 67.0983 39.2084 67.3934 38.71C67.6885 38.2116 68.0406 37.8011 68.4497 37.4785C68.8688 37.1421 69.3151 36.9351 69.7887 36.8573C70.2742 36.7775 70.6302 36.8346 70.8566 37.0284C71.0929 37.2085 71.2373 37.4584 71.2899 37.7781C71.3346 38.0505 71.2807 38.3147 71.1282 38.5708C70.9757 38.8269 70.781 38.9744 70.5442 39.0133C70.1061 39.0853 69.852 38.9081 69.782 38.4818C69.7664 38.3871 69.7686 38.2895 69.7886 38.1889C69.8066 38.0765 69.868 37.9691 69.9728 37.8668C70.0658 37.7664 70.1735 37.6818 70.296 37.613C70.4165 37.5324 70.4748 37.4803 70.4709 37.4566C70.4651 37.4211 70.4119 37.3934 70.3113 37.3734C70.2601 37.3575 70.2039 37.3485 70.1427 37.3464C70.0816 37.3442 70.0214 37.348 69.9622 37.3578C69.5596 37.4239 69.2236 37.6737 68.9543 38.107C68.685 38.5404 68.5168 39.1822 68.4497 40.0323L69.995 39.7785L70.0912 40.3646L68.3861 40.6447C68.2787 41.8419 68.1253 42.9069 67.9258 43.8395C67.7244 44.7604 67.4632 45.539 67.1421 46.1755C66.5137 47.4583 65.7732 48.1697 64.9206 48.3097C64.4943 48.3798 64.1542 48.3079 63.9002 48.0943C63.6462 47.8806 63.491 47.6021 63.4346 47.2587C63.3724 46.8798 63.4145 46.581 63.561 46.3624C63.7075 46.1437 63.9169 46.012 64.1893 45.9673C64.4261 45.9284 64.6282 45.9742 64.7956 46.1048C64.9492 46.2255 65.0435 46.3925 65.0785 46.6056C65.096 46.7122 65.0997 46.8089 65.0897 46.8956C65.0796 46.9824 65.0409 47.08 64.9736 47.1883C64.9043 47.2848 64.839 47.3685 64.7777 47.4394C64.7163 47.5103 64.659 47.5683 64.6056 47.6136C64.5621 47.645 64.5453 47.6904 64.555 47.7496C64.5647 47.8088 64.6584 47.8238 64.836 47.7946C65.2031 47.7343 65.4918 47.4559 65.7021 46.9592C65.8072 46.7109 65.9066 46.3905 66.0002 45.9982C66.0919 45.594 66.16 45.1572 66.2045 44.6877L66.4583 42.4571C66.5311 41.7155 66.5994 41.2057 66.6632 40.9277L65.4553 41.1261L65.3591 40.5399L66.7623 40.3094Z" fill="white"/>
</svg>
