<svg width="70" height="70" viewBox="0 0 70 70" fill="none" xmlns="http://www.w3.org/2000/svg">
<path d="M18.6 19.768V19H50.6V19.768H18.6ZM18.6 27.576V26.808H50.6V27.576H18.6ZM18.6 35.384V34.616H50.6V35.384H18.6ZM18.6 43.192V42.424H50.6V43.192H18.6ZM18.6 51V50.232H50.6V51H18.6Z" fill="white"/>
<path d="M18.6 19.768V19H50.6V19.768H18.6ZM18.6 27.576V26.808H50.6V27.576H18.6ZM18.6 35.384V34.616H50.6V35.384H18.6ZM18.6 43.192V42.424H50.6V43.192H18.6ZM18.6 51V50.232H50.6V51H18.6Z" fill="white"/>
<path d="M18.6 19.768V19H50.6V19.768H18.6ZM18.6 27.576V26.808H50.6V27.576H18.6ZM18.6 35.384V34.616H50.6V35.384H18.6ZM18.6 43.192V42.424H50.6V43.192H18.6ZM18.6 51V50.232H50.6V51H18.6Z" fill="white"/>
<path d="M18.6 19.768V19H50.6V19.768H18.6ZM18.6 27.576V26.808H50.6V27.576H18.6ZM18.6 35.384V34.616H50.6V35.384H18.6ZM18.6 43.192V42.424H50.6V43.192H18.6ZM18.6 51V50.232H50.6V51H18.6Z" fill="white"/>
<path d="M18.6 19.768V19H50.6V19.768H18.6ZM18.6 27.576V26.808H50.6V27.576H18.6ZM18.6 35.384V34.616H50.6V35.384H18.6ZM18.6 43.192V42.424H50.6V43.192H18.6ZM18.6 51V50.232H50.6V51H18.6Z" fill="white"/>
<path d="M31.6 19.32H32.592V31.8C33.3813 31.0107 34.2773 30.616 35.28 30.616C35.9627 30.616 36.5813 30.8507 37.136 31.32C37.6907 31.768 37.968 32.4293 37.968 33.304C37.968 33.9867 37.7653 34.616 37.36 35.192C36.9547 35.768 36.4107 36.344 35.728 36.92L33.52 38.808C33.1147 39.1493 32.752 39.48 32.432 39.8C32.112 40.1413 31.8347 40.4613 31.6 40.76V19.32ZM32.592 38.616C33.1467 38.0187 33.616 37.4747 34 36.984C34.384 36.472 34.6827 36.024 34.896 35.64C35.1307 35.2347 35.3013 34.8613 35.408 34.52C35.536 34.1787 35.6 33.8587 35.6 33.56C35.6 32.9627 35.4613 32.536 35.184 32.28C34.9067 32.0027 34.608 31.864 34.288 31.864C33.9467 31.864 33.6053 31.992 33.264 32.248C32.944 32.4827 32.72 32.8133 32.592 33.24V38.616Z" fill="white"/>
</svg>
