<svg width="80" height="80" viewBox="0 0 80 80" fill="none" xmlns="http://www.w3.org/2000/svg">
<path d="M16.6447 9.84342L16.8647 8.54509L70.962 17.7123L70.742 19.0106L16.6447 9.84342ZM14.4079 23.0432L14.6279 21.7448L68.7252 30.9121L68.5052 32.2104L14.4079 23.0432ZM12.1711 36.2429L12.3911 34.9446L66.4884 44.1118L66.2684 45.4101L12.1711 36.2429ZM9.93429 49.4426L10.1543 48.1443L64.2516 57.3115L64.0316 58.6099L9.93429 49.4426ZM7.69749 62.6424L7.9175 61.3441L62.0148 70.5113L61.7948 71.8096L7.69749 62.6424Z" fill="white"/>
<path d="M24.6664 56.7732C24.0173 56.6632 23.6853 55.9948 23.777 55.4538C23.8045 55.2915 23.8953 55.0843 24.0401 54.8862C24.0493 54.8321 24.1126 54.7872 24.1217 54.7331L24.5197 54.3553C26.5276 52.3583 32.4001 45.6179 33.5368 38.9099C33.6835 38.0443 34.4684 38.0104 34.9553 38.0929C35.388 38.1662 38.5074 38.8061 39.4811 38.9711C40.4549 39.1361 43.3944 39.523 43.8813 39.6055C44.3141 39.6788 44.6378 40.0676 44.5644 40.5003C44.5461 40.6085 44.4828 40.6535 44.4645 40.7617C44.2014 41.3292 32.7982 51.807 27.8471 54.7522L35.1502 55.9898L35.8836 51.662C35.9936 51.0129 36.3191 50.7341 36.5813 50.5003L44.1272 45.3792C44.516 45.0555 44.8048 44.9931 45.2917 45.0756C45.8868 45.1765 45.8583 45.6725 45.785 46.1053L43.8599 57.4657L47.1598 58.0249C47.7549 58.1258 47.8705 58.7575 47.7604 59.4067C47.6504 60.0558 47.2791 60.6051 46.7381 60.5134L43.4382 59.9542L42.934 62.9296C42.6407 64.6607 43.7217 65.1778 44.2627 65.2694C44.8036 65.3611 45.3978 65.7957 45.2695 66.5531C45.1411 67.3104 44.536 67.5974 43.995 67.5058L31.1198 65.324C30.3084 65.1865 30.1928 64.5547 30.2845 64.0137C30.3762 63.4728 30.8374 63.0501 31.7029 63.1967C32.6767 63.3618 33.9402 63.1307 34.1877 61.67L34.7285 58.4783L24.6664 56.7732Z" fill="white"/>
<path d="M24.6664 56.7732C24.0173 56.6632 23.6853 55.9948 23.777 55.4538C23.8045 55.2915 23.8953 55.0843 24.0401 54.8862C24.0493 54.8321 24.1126 54.7872 24.1217 54.7331L24.5197 54.3553C26.5276 52.3583 32.4001 45.6179 33.5368 38.9099C33.6835 38.0443 34.4684 38.0104 34.9553 38.0929C35.388 38.1662 38.5074 38.8061 39.4811 38.9711C40.4549 39.1361 43.3944 39.523 43.8813 39.6055C44.3141 39.6788 44.6378 40.0676 44.5644 40.5003C44.5461 40.6085 44.4828 40.6535 44.4645 40.7617C44.2014 41.3292 32.7982 51.807 27.8471 54.7522L35.1502 55.9898L35.8836 51.662C35.9936 51.0129 36.3191 50.7341 36.5813 50.5003L44.1272 45.3792C44.516 45.0555 44.8048 44.9931 45.2917 45.0756C45.8868 45.1765 45.8583 45.6725 45.785 46.1053L43.8599 57.4657L47.1598 58.0249C47.7549 58.1258 47.8705 58.7575 47.7604 59.4067C47.6504 60.0558 47.2791 60.6051 46.7381 60.5134L43.4382 59.9542L42.934 62.9296C42.6407 64.6607 43.7217 65.1778 44.2627 65.2694C44.8036 65.3611 45.3978 65.7957 45.2695 66.5531C45.1411 67.3104 44.536 67.5974 43.995 67.5058L31.1198 65.324C30.3084 65.1865 30.1928 64.5547 30.2845 64.0137C30.3762 63.4728 30.8374 63.0501 31.7029 63.1967C32.6767 63.3618 33.9402 63.1307 34.1877 61.67L34.7285 58.4783L24.6664 56.7732Z" fill="white"/>
<path d="M29.1068 30.5696C28.4576 30.4596 28.1257 29.7912 28.2174 29.2502C28.2449 29.0879 28.3356 28.8807 28.4805 28.6826C28.4897 28.6285 28.5529 28.5836 28.5621 28.5295L28.96 28.1517C30.968 26.1546 36.8405 19.4143 37.9772 12.7063C38.1239 11.8407 38.9088 11.8068 39.3956 11.8893C39.8284 11.9626 42.9477 12.6025 43.9215 12.7675C44.8952 12.9325 47.8348 13.3194 48.3217 13.4019C48.7545 13.4752 49.0781 13.8639 49.0048 14.2967C48.9865 14.4049 48.9232 14.4499 48.9049 14.558C48.6417 15.1256 37.2386 25.6034 32.2875 28.5486L39.5906 29.7862L40.324 25.4584C40.434 24.8092 40.7595 24.5305 41.0217 24.2967L48.5676 19.1756C48.9564 18.8519 49.2452 18.7895 49.7321 18.872C50.3271 18.9729 50.2987 19.4689 50.2254 19.9017L48.3003 31.2621L51.6002 31.8213C52.1953 31.9222 52.3108 32.5539 52.2008 33.2031C52.0908 33.8522 51.7195 34.4015 51.1785 34.3098L47.8786 33.7506L47.3744 36.7259C47.081 38.4571 48.1621 38.9742 48.703 39.0658C49.244 39.1575 49.8382 39.5921 49.7098 40.3495C49.5815 41.1068 48.9763 41.3938 48.4354 41.3022L35.5602 39.1204C34.7488 38.9828 34.6332 38.3511 34.7249 37.8101C34.8166 37.2692 35.2777 36.8465 36.1433 36.9931C37.117 37.1581 38.3805 36.927 38.628 35.4664L39.1689 32.2747L29.1068 30.5696Z" fill="white"/>
</svg>
