<svg width="70" height="70" viewBox="0 0 70 70" fill="none" xmlns="http://www.w3.org/2000/svg">
<path d="M14.8242 37.3613H11.5498L11.1602 38.2637C11.0326 38.5645 10.9688 38.8128 10.9688 39.0088C10.9688 39.2686 11.0736 39.46 11.2832 39.583C11.4062 39.6559 11.7093 39.7106 12.1924 39.7471V40H9.10938V39.7471C9.44206 39.6969 9.71549 39.5602 9.92969 39.3369C10.1439 39.109 10.4082 38.6419 10.7227 37.9355L14.0381 30.5391H14.168L17.5107 38.1406C17.8298 38.8607 18.0918 39.3141 18.2969 39.501C18.4518 39.6423 18.6706 39.7243 18.9531 39.7471V40H14.4688V39.7471H14.6533C15.0133 39.7471 15.2663 39.6969 15.4121 39.5967C15.5124 39.5238 15.5625 39.4189 15.5625 39.2822C15.5625 39.2002 15.5488 39.1159 15.5215 39.0293C15.5124 38.9883 15.444 38.8174 15.3164 38.5166L14.8242 37.3613ZM14.5918 36.8555L13.2109 33.6631L11.7891 36.8555H14.5918ZM25.3317 33.6084V38.6123C25.3317 39.0999 25.3773 39.4053 25.4684 39.5283C25.5596 39.6468 25.7442 39.722 26.0221 39.7539V40H23.4177V39.1455C23.1123 39.5101 22.807 39.7767 22.5016 39.9453C22.1963 40.1094 21.8545 40.1914 21.4762 40.1914C21.1162 40.1914 20.7949 40.082 20.5124 39.8633C20.2344 39.64 20.0475 39.3802 19.9518 39.084C19.8561 38.7878 19.8083 38.2705 19.8083 37.5322V34.9961C19.8083 34.513 19.7627 34.2122 19.6716 34.0938C19.585 33.9753 19.4004 33.8978 19.1179 33.8613V33.6084H21.7223V37.9766C21.7223 38.4323 21.7429 38.7262 21.7839 38.8584C21.8294 38.9906 21.8978 39.0908 21.9889 39.1592C22.0846 39.2275 22.194 39.2617 22.3171 39.2617C22.4811 39.2617 22.6292 39.2184 22.7614 39.1318C22.9437 39.0133 23.1624 38.7741 23.4177 38.4141V34.9961C23.4177 34.513 23.3721 34.2122 23.2809 34.0938C23.1943 33.9753 23.0098 33.8978 22.7272 33.8613V33.6084H25.3317ZM30.6234 33.6836H32.7767V34.4355H31.5531C31.7764 34.6589 31.9313 34.8617 32.0179 35.0439C32.1273 35.29 32.182 35.5475 32.182 35.8164C32.182 36.2721 32.0544 36.6686 31.7992 37.0059C31.5485 37.3385 31.2045 37.6006 30.767 37.792C30.334 37.9788 29.9489 38.0723 29.6117 38.0723C29.5843 38.0723 29.3109 38.0609 28.7914 38.0381C28.5863 38.0381 28.4131 38.1064 28.2718 38.2432C28.1351 38.3753 28.0668 38.5348 28.0668 38.7217C28.0668 38.8857 28.1283 39.0202 28.2513 39.125C28.3789 39.2298 28.584 39.2822 28.8666 39.2822L30.0492 39.2686C31.0062 39.2686 31.6647 39.3734 32.0248 39.583C32.5397 39.8747 32.7972 40.3236 32.7972 40.9297C32.7972 41.3171 32.6787 41.668 32.4418 41.9824C32.2048 42.3014 31.8926 42.5361 31.5052 42.6865C30.9173 42.9098 30.2406 43.0215 29.475 43.0215C28.9007 43.0215 28.3767 42.9645 27.9027 42.8506C27.4287 42.7412 27.0892 42.5863 26.8841 42.3857C26.6791 42.1898 26.5765 41.9824 26.5765 41.7637C26.5765 41.554 26.654 41.3649 26.8089 41.1963C26.9684 41.0322 27.2624 40.8932 27.6908 40.7793C27.0983 40.4876 26.8021 40.082 26.8021 39.5625C26.8021 39.248 26.9229 38.9427 27.1644 38.6465C27.4059 38.3503 27.7888 38.0928 28.3129 37.874C27.7022 37.6507 27.2601 37.3568 26.9867 36.9922C26.7132 36.6276 26.5765 36.2061 26.5765 35.7275C26.5765 35.1032 26.8317 34.5632 27.3421 34.1074C27.8526 33.6471 28.5088 33.417 29.3109 33.417C29.7347 33.417 30.1722 33.5059 30.6234 33.6836ZM29.4408 33.8408C29.1765 33.8408 28.9532 33.9753 28.7709 34.2441C28.5886 34.5085 28.4974 35.0599 28.4974 35.8984C28.4974 36.5775 28.5863 37.0446 28.764 37.2998C28.9463 37.5505 29.1605 37.6758 29.4066 37.6758C29.68 37.6758 29.9079 37.5505 30.0902 37.2998C30.2725 37.0492 30.3636 36.5615 30.3636 35.8369C30.3636 35.0212 30.2611 34.4652 30.056 34.1689C29.9102 33.9502 29.7051 33.8408 29.4408 33.8408ZM29.0375 40.9434C28.5726 40.9434 28.265 40.9821 28.1146 41.0596C27.8548 41.2008 27.725 41.3923 27.725 41.6338C27.725 41.8662 27.8594 42.0758 28.1283 42.2627C28.3972 42.4541 28.903 42.5498 29.6459 42.5498C30.2793 42.5498 30.7761 42.4655 31.1361 42.2969C31.5007 42.1283 31.683 41.8913 31.683 41.5859C31.683 41.472 31.6488 41.3763 31.5804 41.2988C31.4574 41.1621 31.2705 41.0687 31.0199 41.0186C30.7738 40.9684 30.113 40.9434 29.0375 40.9434ZM36.5508 30.5186L33.5088 40.2119H32.6338L35.6895 30.5186H36.5508ZM36.2712 40V39.7471H36.5788C36.8477 39.7471 37.0528 39.7061 37.1941 39.624C37.3399 39.5374 37.447 39.4212 37.5154 39.2754C37.5564 39.1797 37.5769 38.8926 37.5769 38.4141V32.3164C37.5769 31.8424 37.5518 31.5462 37.5017 31.4277C37.4516 31.3092 37.349 31.2067 37.1941 31.1201C37.0437 31.029 36.8386 30.9834 36.5788 30.9834H36.2712V30.7305H40.4206C41.528 30.7305 42.419 30.8809 43.0935 31.1816C43.9183 31.5508 44.5427 32.109 44.9665 32.8564C45.3949 33.6038 45.6091 34.4492 45.6091 35.3926C45.6091 36.0443 45.5043 36.6458 45.2946 37.1973C45.085 37.7441 44.8139 38.1976 44.4812 38.5576C44.1485 38.9131 43.7634 39.2002 43.3259 39.4189C42.893 39.6331 42.362 39.7995 41.7331 39.918C41.4551 39.9727 41.0176 40 40.4206 40H36.2712ZM39.8054 31.2568V38.4893C39.8054 38.8721 39.8236 39.1068 39.8601 39.1934C39.8965 39.2799 39.9581 39.346 40.0446 39.3916C40.1677 39.46 40.3454 39.4941 40.5779 39.4941C41.3389 39.4941 41.92 39.2344 42.321 38.7148C42.8679 38.013 43.1413 36.9238 43.1413 35.4473C43.1413 34.2578 42.9545 33.3076 42.5808 32.5967C42.2846 32.0407 41.904 31.6624 41.4392 31.4619C41.1111 31.3206 40.5665 31.2523 39.8054 31.2568ZM47.7836 30.5117C48.0798 30.5117 48.3305 30.6165 48.5355 30.8262C48.7406 31.0312 48.8432 31.2796 48.8432 31.5713C48.8432 31.863 48.7383 32.1113 48.5287 32.3164C48.3236 32.5215 48.0753 32.624 47.7836 32.624C47.4919 32.624 47.2436 32.5215 47.0385 32.3164C46.8334 32.1113 46.7309 31.863 46.7309 31.5713C46.7309 31.2796 46.8334 31.0312 47.0385 30.8262C47.2436 30.6165 47.4919 30.5117 47.7836 30.5117ZM48.7406 33.6084V38.6738C48.7406 39.125 48.793 39.4144 48.8979 39.542C49.0027 39.665 49.2077 39.7357 49.5131 39.7539V40H46.0609V39.7539C46.3435 39.7448 46.5531 39.6628 46.6898 39.5078C46.781 39.403 46.8266 39.125 46.8266 38.6738V34.9414C46.8266 34.4902 46.7742 34.2031 46.6693 34.0801C46.5645 33.9525 46.3617 33.8796 46.0609 33.8613V33.6084H48.7406ZM52.3643 33.6084V34.4492C52.7152 34.0664 53.0388 33.7998 53.335 33.6494C53.6358 33.4945 53.9639 33.417 54.3194 33.417C54.7296 33.417 55.0736 33.5127 55.3516 33.7041C55.6296 33.8955 55.8438 34.1872 55.9942 34.5791C56.3588 34.1689 56.7074 33.8727 57.0401 33.6904C57.3774 33.5081 57.7283 33.417 58.0928 33.417C58.5349 33.417 58.8858 33.5195 59.1456 33.7246C59.4099 33.9251 59.5922 34.1826 59.6925 34.4971C59.7973 34.807 59.8497 35.3037 59.8497 35.9873V38.6055C59.8497 39.0977 59.893 39.403 59.9796 39.5215C60.0707 39.64 60.2576 39.7174 60.5401 39.7539V40H57.2384V39.7539C57.4981 39.7311 57.6895 39.6309 57.8126 39.4531C57.8946 39.3301 57.9356 39.0475 57.9356 38.6055V35.8574C57.9356 35.2878 57.9128 34.9255 57.8673 34.7705C57.8217 34.6156 57.7488 34.5016 57.6485 34.4287C57.5528 34.3512 57.4389 34.3125 57.3067 34.3125C57.1108 34.3125 56.9125 34.3854 56.712 34.5312C56.5115 34.6725 56.3087 34.8867 56.1036 35.1738V38.6055C56.1036 39.0658 56.1423 39.3551 56.2198 39.4736C56.3246 39.6423 56.5251 39.7357 56.8214 39.7539V40H53.5128V39.7539C53.6905 39.7448 53.8295 39.7015 53.9298 39.624C54.0346 39.542 54.1029 39.4463 54.1348 39.3369C54.1713 39.223 54.1895 38.9792 54.1895 38.6055V35.8574C54.1895 35.2786 54.1667 34.9163 54.1212 34.7705C54.0756 34.6247 53.9981 34.5107 53.8887 34.4287C53.7839 34.3467 53.67 34.3057 53.547 34.3057C53.3647 34.3057 53.1983 34.3535 53.0479 34.4492C52.8337 34.5905 52.6059 34.832 52.3643 35.1738V38.6055C52.3643 39.0566 52.4076 39.3551 52.4942 39.501C52.5854 39.6423 52.7722 39.7266 53.0548 39.7539V40H49.7598V39.7539C50.0287 39.7266 50.2201 39.64 50.3341 39.4941C50.4115 39.3939 50.4503 39.0977 50.4503 38.6055V34.9961C50.4503 34.513 50.4047 34.2122 50.3136 34.0938C50.227 33.9753 50.0424 33.8978 49.7598 33.8613V33.6084H52.3643Z" fill="white"/>
</svg>
