<svg width="80" height="60" viewBox="0 0 80 60" fill="none" xmlns="http://www.w3.org/2000/svg">
<path d="M9.18974 44.2038L9.34583 44.3723C9.01201 44.8078 8.6348 45.1114 8.21421 45.2829C7.79812 45.4513 7.37622 45.4999 6.94851 45.4287C6.22795 45.3088 5.69709 44.9413 5.35593 44.3261C5.01478 43.711 4.90768 43.022 5.03464 42.259C5.15711 41.5231 5.46135 40.9084 5.94736 40.4151C6.53353 39.8196 7.24276 39.5912 8.07507 39.7297C8.63379 39.8227 9.05351 40.037 9.33423 40.3728C9.6188 40.7093 9.73223 41.0509 9.67452 41.3977C9.63797 41.6173 9.54137 41.7814 9.3847 41.89C9.23189 41.9992 9.04759 42.0358 8.83181 41.9999C8.60447 41.9621 8.42816 41.8555 8.30289 41.6803C8.18147 41.5056 8.13549 41.2227 8.16493 40.8316C8.18221 40.585 8.15455 40.4062 8.08195 40.2951C8.00936 40.184 7.91333 40.1186 7.79388 40.0987C7.60893 40.0679 7.43459 40.1399 7.27088 40.3146C7.02114 40.5779 6.84529 41.016 6.74333 41.6286C6.65869 42.1373 6.6585 42.6382 6.74275 43.1313C6.82764 43.6207 6.99182 44.0024 7.23527 44.2765C7.41963 44.4775 7.6563 44.602 7.9453 44.6501C8.13411 44.6815 8.32066 44.667 8.50495 44.6066C8.68924 44.5462 8.91751 44.4119 9.18974 44.2038ZM12.8586 40.5257C13.3287 40.6039 13.7458 40.7981 14.11 41.1082C14.4742 41.4182 14.7232 41.8141 14.8569 42.2957C14.9944 42.7779 15.0189 43.2849 14.9305 43.8167C14.8029 44.5835 14.5015 45.1927 14.0264 45.6442C13.4524 46.1902 12.7512 46.3943 11.9228 46.2565C11.1097 46.1212 10.531 45.7318 10.1866 45.0884C9.84227 44.4451 9.7326 43.7477 9.85764 42.9963C9.98652 42.2218 10.3222 41.5846 10.8647 41.0849C11.4118 40.5819 12.0764 40.3955 12.8586 40.5257ZM12.8134 40.9399C12.6169 40.9072 12.4349 40.9541 12.2673 41.0807C12.1042 41.204 11.963 41.4815 11.8436 41.9131C11.7288 42.3414 11.6066 42.9448 11.4771 43.7231C11.4085 44.1354 11.3713 44.5253 11.3656 44.8926C11.3625 45.1732 11.4184 45.3964 11.5334 45.562C11.6484 45.7277 11.7945 45.8253 11.9718 45.8548C12.1452 45.8836 12.2977 45.8595 12.4293 45.7824C12.6014 45.6764 12.732 45.51 12.8213 45.2833C12.9592 44.9301 13.1209 44.1967 13.3062 43.0831C13.4152 42.428 13.4533 41.973 13.4205 41.7181C13.3883 41.4593 13.3102 41.2622 13.1862 41.1267C13.0995 41.0291 12.9753 40.9668 12.8134 40.9399ZM17.9851 41.5451L17.8687 42.2445C18.1962 41.9901 18.4983 41.8166 18.775 41.7241C19.0524 41.6277 19.3375 41.6038 19.6304 41.6526C19.981 41.7109 20.2556 41.8576 20.4541 42.0926C20.6532 42.3237 20.7673 42.5902 20.7963 42.892C20.8214 43.1219 20.782 43.549 20.6781 44.1732L20.328 46.2771C20.2587 46.6932 20.2521 46.9594 20.308 47.0756C20.3684 47.1887 20.5158 47.2785 20.7502 47.3452L20.7156 47.5533L17.9817 47.0984L18.0163 46.8903C18.225 46.8973 18.3855 46.8369 18.4979 46.7091C18.5756 46.623 18.6461 46.3892 18.7096 46.0078L19.1097 43.6033C19.1835 43.1602 19.2126 42.878 19.1972 42.7566C19.1817 42.6352 19.1368 42.5367 19.0623 42.4609C18.9922 42.3819 18.9071 42.3341 18.807 42.3174C18.4756 42.2623 18.1279 42.448 17.7639 42.8745L17.282 45.7702C17.2147 46.1748 17.2086 46.4371 17.2639 46.5572C17.323 46.6779 17.4524 46.7688 17.6522 46.8297L17.6175 47.0378L14.8836 46.5828L14.9183 46.3748C15.1495 46.3895 15.3235 46.3432 15.4403 46.2359C15.5199 46.1621 15.5944 45.917 15.6636 45.5009L16.1715 42.4491C16.2394 42.0407 16.2432 41.7799 16.1828 41.6669C16.1263 41.5546 15.9811 41.4631 15.7474 41.3925L15.7829 41.1786L17.9851 41.5451ZM26.9745 40.5403L26.4791 43.5169C27.012 43.1225 27.5482 42.9702 28.0877 43.0599C28.4576 43.1215 28.788 43.2893 29.079 43.5635C29.3706 43.8338 29.5756 44.1847 29.6939 44.6162C29.8121 45.0477 29.8277 45.5255 29.7405 46.0495C29.6423 46.6391 29.4357 47.1551 29.1205 47.5977C28.8053 48.0402 28.43 48.3559 27.9947 48.5448C27.5599 48.7299 27.0902 48.7804 26.5854 48.6964C26.2926 48.6477 26.0402 48.5582 25.8282 48.4279C25.6163 48.2976 25.4178 48.1101 25.2328 47.8655L24.2398 48.3002L24.0432 48.2675L25.1868 41.3952C25.2388 41.083 25.2574 40.8881 25.2426 40.8104C25.222 40.6961 25.1735 40.6069 25.097 40.5427C25.0251 40.4753 24.8915 40.4214 24.6963 40.381L24.7319 40.1671L26.9745 40.5403ZM26.3935 44.0313L25.9934 46.4358C25.912 46.9251 25.8716 47.2392 25.8723 47.3779C25.873 47.6116 25.9347 47.812 26.0574 47.9789C26.1807 48.142 26.3561 48.2425 26.5834 48.2803C26.7799 48.313 26.9568 48.285 27.1141 48.1964C27.2753 48.1083 27.4297 47.9063 27.5773 47.5903C27.7288 47.275 27.8764 46.6858 28.02 45.8226C28.1578 44.9942 28.1484 44.4085 27.9916 44.0656C27.8785 43.8171 27.6948 43.6717 27.4405 43.6294C27.1091 43.5742 26.7601 43.7082 26.3935 44.0313ZM32.8847 44.0245L32.6808 45.2499C33.1322 44.7508 33.5077 44.4331 33.8076 44.2969C34.1081 44.1568 34.3836 44.1076 34.6341 44.1493C34.8498 44.1852 35.0101 44.2812 35.1148 44.4372C35.224 44.59 35.2584 44.7878 35.218 45.0306C35.1751 45.2887 35.0781 45.4785 34.9273 45.5999C34.7802 45.722 34.6181 45.7683 34.4408 45.7388C34.2366 45.7048 34.0703 45.6098 33.9418 45.4538C33.8133 45.2977 33.7369 45.2098 33.7125 45.1899C33.6778 45.1603 33.6354 45.1414 33.5853 45.1331C33.4736 45.1145 33.3605 45.1392 33.2463 45.2073C33.0665 45.3121 32.9159 45.4791 32.7946 45.7083C32.6091 46.0616 32.4788 46.4636 32.4038 46.9145L32.197 48.1571L32.1489 48.4818C32.1124 48.7014 32.1025 48.8443 32.1192 48.9104C32.1481 49.0222 32.2027 49.1105 32.283 49.1753C32.3678 49.2369 32.5171 49.2915 32.731 49.3389L32.6964 49.547L29.7775 49.0613L29.8121 48.8532C30.0504 48.8731 30.2189 48.8358 30.3178 48.7414C30.4212 48.6437 30.512 48.3599 30.5902 47.8898L31.0875 44.9016C31.1388 44.5933 31.1561 44.3942 31.1393 44.3043C31.1188 44.19 31.076 44.1017 31.0112 44.0394C30.9463 43.9772 30.823 43.921 30.6412 43.871L30.6768 43.6571L32.8847 44.0245ZM37.2138 42.0541C37.4643 42.0958 37.6615 42.2197 37.8054 42.4258C37.9499 42.628 38.0017 42.8525 37.9606 43.0991C37.9196 43.3457 37.796 43.541 37.5899 43.6849C37.3877 43.8294 37.1633 43.8811 36.9166 43.8401C36.67 43.7991 36.4745 43.6774 36.3299 43.4752C36.1854 43.2729 36.1336 43.0485 36.1747 42.8019C36.2157 42.5553 36.3373 42.3597 36.5396 42.2152C36.7425 42.0668 36.9672 42.0131 37.2138 42.0541ZM37.5873 44.8071L36.8746 49.09C36.8111 49.4714 36.8147 49.7235 36.8854 49.8461C36.9567 49.9649 37.1202 50.0535 37.3758 50.1119L37.3412 50.32L34.4223 49.8342L34.4569 49.6262C34.6971 49.6582 34.8859 49.6183 35.0233 49.5066C35.1151 49.4308 35.1928 49.2021 35.2562 48.8207L35.7814 45.6648C35.8449 45.2834 35.841 45.0332 35.7697 44.9144C35.699 44.7918 35.5378 44.7016 35.286 44.6439L35.3216 44.43L37.5873 44.8071ZM40.9239 45.196C41.394 45.2742 41.8111 45.4684 42.1753 45.7784C42.5395 46.0885 42.7885 46.4844 42.9222 46.966C43.0597 47.4482 43.0843 47.9552 42.9958 48.487C42.8682 49.2538 42.5668 49.863 42.0917 50.3145C41.5177 50.8605 40.8165 51.0646 39.9881 50.9267C39.175 50.7914 38.5963 50.4021 38.252 49.7587C37.9076 49.1153 37.7979 48.418 37.923 47.6666C38.0518 46.8921 38.3875 46.2549 38.9301 45.7552C39.4771 45.2522 40.1417 45.0658 40.9239 45.196ZM40.8787 45.6102C40.6822 45.5775 40.5002 45.6244 40.3326 45.751C40.1695 45.8743 40.0283 46.1518 39.909 46.5834C39.7941 47.0117 39.6719 47.6151 39.5424 48.3934C39.4738 48.8057 39.4366 49.1956 39.431 49.5629C39.4278 49.8435 39.4837 50.0667 39.5987 50.2323C39.7137 50.398 39.8599 50.4955 40.0371 50.525C40.2105 50.5539 40.363 50.5298 40.4946 50.4527C40.6667 50.3467 40.7974 50.1803 40.8866 49.9536C41.0246 49.6004 41.1862 48.867 41.3715 47.7534C41.4805 47.0983 41.5186 46.6433 41.4858 46.3884C41.4536 46.1296 41.3755 45.9325 41.2516 45.797C41.1648 45.6994 41.0406 45.6371 40.8787 45.6102Z" fill="white"/>
<path d="M13.9378 32.7547L11.5247 28.8013C11.2337 28.3252 11.0169 28.028 10.8742 27.9098C10.7713 27.8215 10.6303 27.7721 10.4513 27.7615L10.4215 27.5468L13.3059 27.1458L13.3357 27.3605C13.1539 27.3858 13.0346 27.4359 12.978 27.5108C12.897 27.6088 12.8645 27.7159 12.8807 27.8319C12.9006 27.9751 13.0231 28.2322 13.2482 28.6031L14.4252 30.5159L14.8945 28.6582C15.0296 28.1267 15.0827 27.7565 15.0536 27.5476C15.0369 27.4276 14.979 27.3371 14.8798 27.2759C14.7839 27.2104 14.6252 27.1891 14.4036 27.212L14.3737 26.9973L16.1496 26.7504L16.1794 26.9651C16.0124 27.012 15.882 27.0952 15.7882 27.2147C15.6944 27.3342 15.5747 27.6644 15.429 28.2053L14.2106 32.7168L13.9378 32.7547ZM17.1689 23.9288C17.4204 23.8939 17.6455 23.9533 17.8444 24.107C18.0427 24.2569 18.1591 24.4557 18.1935 24.7033C18.2279 24.9509 18.1682 25.1742 18.0145 25.373C17.8646 25.5713 17.6658 25.6877 17.4182 25.7221C17.1706 25.7565 16.9476 25.6988 16.7493 25.5489C16.551 25.399 16.4346 25.2003 16.4002 24.9526C16.3658 24.705 16.4235 24.4821 16.5734 24.2837C16.7228 24.0816 16.9212 23.9633 17.1689 23.9288ZM18.3469 26.4449L18.9448 30.7453C18.9981 31.1283 19.0767 31.3678 19.1808 31.4638C19.2843 31.5559 19.4667 31.5916 19.7281 31.5711L19.7571 31.78L16.8264 32.1875L16.7973 31.9786C17.0361 31.9375 17.2044 31.8431 17.3022 31.6954C17.3672 31.5957 17.3731 31.3543 17.3198 30.9712L16.8792 27.8025C16.826 27.4195 16.7476 27.1819 16.6441 27.0898C16.54 26.9938 16.3593 26.9559 16.1018 26.9759L16.0719 26.7612L18.3469 26.4449ZM22.3369 31.587L19.9237 27.6336C19.6327 27.1574 19.4159 26.8602 19.2733 26.742C19.1703 26.6538 19.0293 26.6044 18.8504 26.5937L18.8205 26.379L21.7049 25.978L21.7348 26.1927C21.5529 26.218 21.4337 26.2681 21.377 26.343C21.296 26.441 21.2636 26.5481 21.2797 26.6642C21.2996 26.8073 21.4221 27.0644 21.6472 27.4354L22.8242 29.3481L23.2936 27.4904C23.4287 26.9589 23.4817 26.5887 23.4527 26.3798C23.436 26.2599 23.3781 26.1693 23.2788 26.1082C23.183 26.0426 23.0242 26.0213 22.8026 26.0442L22.7728 25.8295L24.5486 25.5826L24.5785 25.7973C24.4115 25.8442 24.2811 25.9274 24.1873 26.0469C24.0935 26.1665 23.9737 26.4966 23.8281 27.0375L22.6096 31.549L22.3369 31.587ZM28.2654 29.7807C27.685 30.4569 27.1317 30.8316 26.6055 30.9047C26.296 30.9478 26.0247 30.8829 25.7917 30.7103C25.5581 30.5337 25.4201 30.2926 25.3776 29.987C25.32 29.573 25.4464 29.1768 25.7566 28.7984C26.0663 28.4162 26.7807 27.8673 27.8999 27.1517L27.824 26.6061C27.767 26.196 27.708 25.942 27.647 25.8439C27.5894 25.7415 27.4933 25.6602 27.3588 25.6001C27.2237 25.536 27.0787 25.5148 26.924 25.5363C26.6725 25.5713 26.4733 25.6561 26.3264 25.7909C26.2355 25.8746 26.1965 25.9628 26.2094 26.0557C26.2207 26.1369 26.2888 26.23 26.4138 26.3349C26.584 26.4808 26.6798 26.6311 26.7013 26.7859C26.7277 26.9755 26.6787 27.1479 26.5544 27.3032C26.4334 27.4542 26.2588 27.5455 26.0305 27.5772C25.7867 27.6111 25.5715 27.5661 25.3847 27.4422C25.2017 27.3178 25.0965 27.1569 25.0691 26.9596C25.0304 26.681 25.1038 26.4007 25.2893 26.1185C25.4744 25.8325 25.7548 25.5943 26.1306 25.4041C26.5064 25.2138 26.9071 25.089 27.3327 25.0299C27.8473 24.9583 28.2689 25.0121 28.5975 25.1912C28.9294 25.3659 29.1576 25.5748 29.2821 25.8178C29.3588 25.9727 29.4378 26.3423 29.519 26.9265L29.8119 29.0332C29.8464 29.2808 29.8778 29.4362 29.9063 29.4993C29.9343 29.5585 29.9698 29.6009 30.0127 29.6265C30.0557 29.652 30.1024 29.6613 30.1527 29.6543C30.2533 29.6403 30.3459 29.5545 30.4304 29.3968L30.6239 29.5119C30.4702 29.8251 30.2981 30.062 30.1075 30.2226C29.9202 30.3788 29.695 30.4752 29.4319 30.5118C29.1223 30.5548 28.8706 30.5168 28.6766 30.3979C28.482 30.2751 28.345 30.0693 28.2654 29.7807ZM28.2065 29.357L27.9539 27.5405C27.524 27.8803 27.2166 28.2228 27.0319 28.5679C26.9101 28.7978 26.864 29.0191 26.8935 29.2319C26.9183 29.4099 27.0039 29.5577 27.1504 29.6754C27.2617 29.7664 27.4043 29.7998 27.5785 29.7756C27.7719 29.7487 27.9812 29.6092 28.2065 29.357ZM35.1327 28.2166L35.332 28.3308C35.1433 28.8461 34.8739 29.2484 34.5236 29.5376C34.1768 29.8225 33.7886 29.9948 33.3591 30.0545C32.6356 30.1551 32.0193 29.9627 31.5101 29.4774C31.0009 28.9922 30.6931 28.3665 30.5865 27.6004C30.4838 26.8614 30.5907 26.184 30.9074 25.5681C31.2891 24.8249 31.8979 24.3951 32.7336 24.279C33.2946 24.201 33.7592 24.2803 34.1273 24.517C34.4993 24.7532 34.7095 25.0454 34.7579 25.3936C34.7886 25.6141 34.7454 25.7996 34.6282 25.95C34.515 26.0998 34.35 26.1898 34.1334 26.2199C33.9051 26.2517 33.705 26.2026 33.5331 26.0727C33.3651 25.9422 33.2368 25.6859 33.1482 25.3039C33.0911 25.0634 33.0113 24.9009 32.9089 24.8166C32.8065 24.7322 32.6953 24.6984 32.5753 24.7151C32.3896 24.7409 32.2447 24.8616 32.1406 25.0772C31.9808 25.4031 31.9437 25.8736 32.0292 26.4888C32.1002 26.9995 32.2495 27.4776 32.4771 27.9232C32.7042 28.3649 32.9748 28.6802 33.289 28.8692C33.5249 29.006 33.788 29.0542 34.0781 29.0139C34.2677 28.9875 34.4414 28.918 34.5993 28.8054C34.7572 28.6927 34.935 28.4964 35.1327 28.2166ZM39.9465 26.0092L36.9693 26.4231C37.1042 27.1379 37.3748 27.68 37.7811 28.0495C38.0927 28.3335 38.4361 28.4494 38.8114 28.3972C39.0436 28.3649 39.2456 28.2718 39.4174 28.1177C39.5887 27.9598 39.7593 27.6975 39.9291 27.3308L40.1442 27.431C39.9335 28.0716 39.6677 28.5424 39.3467 28.8434C39.0252 29.1405 38.6304 29.3216 38.1622 29.3867C37.3575 29.4986 36.705 29.2738 36.205 28.7123C35.8029 28.2594 35.5504 27.6635 35.4477 26.9245C35.3218 26.0192 35.4655 25.2657 35.8788 24.6639C36.2953 24.0578 36.8325 23.7091 37.4902 23.6176C38.0397 23.5412 38.547 23.7014 39.0123 24.0981C39.481 24.4904 39.7924 25.1275 39.9465 26.0092ZM38.4648 25.8188C38.3782 25.1959 38.2839 24.7732 38.182 24.5508C38.0839 24.3278 37.955 24.1662 37.7952 24.0662C37.7042 24.0079 37.5911 23.9881 37.4556 24.0069C37.2545 24.0349 37.1037 24.1564 37.0035 24.3715C36.8231 24.7476 36.7746 25.2355 36.858 25.8352L36.8862 26.0383L38.4648 25.8188Z" fill="white"/>
<path d="M33.4882 17.6493L33.2226 19.6709C33.1859 19.9498 33.1823 20.1424 33.2117 20.2487C33.2449 20.3555 33.305 20.4382 33.3918 20.4969C33.4787 20.5556 33.6576 20.6027 33.9287 20.6384L33.9005 20.8533L30.8041 20.4465L30.8323 20.2316C31.0735 20.2554 31.2605 20.211 31.3935 20.0984C31.4827 20.0195 31.5517 19.7942 31.6005 19.4224L32.3538 13.6885C32.4042 13.305 32.3917 13.0552 32.3164 12.9389C32.2415 12.8188 32.0773 12.7342 31.8237 12.6851L31.852 12.4701L34.1293 12.7693L34.0354 13.4839C34.2618 13.23 34.4819 13.054 34.6957 12.956C35.0024 12.8111 35.3222 12.7606 35.6553 12.8043C36.0542 12.8567 36.3998 13.0302 36.6921 13.3247C36.9882 13.6197 37.1922 14.001 37.3041 14.4688C37.4165 14.9327 37.4391 15.4203 37.372 15.9315C37.2997 16.4815 37.1445 16.9733 36.9063 17.4069C36.6725 17.8371 36.3713 18.1502 36.0028 18.346C35.6387 18.5385 35.2514 18.6078 34.8409 18.5539C34.5426 18.5147 34.2724 18.4122 34.0302 18.2464C33.8498 18.1203 33.6691 17.9212 33.4882 17.6493ZM33.5653 17.0625C33.8363 17.5788 34.1615 17.8618 34.5411 17.9117C34.7502 17.9392 34.9371 17.8514 35.1016 17.6485C35.3458 17.3496 35.5279 16.7432 35.648 15.8291C35.7711 14.8919 35.7449 14.2364 35.5694 13.8627C35.4523 13.6149 35.2698 13.4747 35.0219 13.4421C34.6307 13.3907 34.2721 13.6312 33.9461 14.1636L33.5653 17.0625ZM42.4926 16.4329L39.5123 16.0413C39.4525 16.7663 39.5694 17.3608 39.8631 17.8249C40.0881 18.1814 40.3884 18.3844 40.7641 18.4338C40.9965 18.4643 41.2159 18.4281 41.4225 18.3252C41.6296 18.2185 41.8637 18.0109 42.1248 17.7024L42.3056 17.8562C41.9324 18.4178 41.5511 18.8011 41.1617 19.0061C40.7728 19.2071 40.344 19.2769 39.8754 19.2153C39.0698 19.1095 38.5005 18.7195 38.1675 18.0454C37.9001 17.502 37.815 16.8604 37.9122 16.1207C38.0312 15.2144 38.3699 14.5261 38.9281 14.0557C39.4907 13.582 40.1012 13.3884 40.7596 13.4749C41.3095 13.5472 41.7561 13.8363 42.0994 14.3424C42.447 14.8451 42.5781 15.5419 42.4926 16.4329ZM41.1146 15.8559C41.1965 15.2323 41.2179 14.7998 41.1787 14.5583C41.1434 14.3172 41.0619 14.1273 40.9344 13.9884C40.8622 13.908 40.7584 13.8589 40.6228 13.8411C40.4214 13.8146 40.2438 13.8918 40.0901 14.0725C39.8163 14.3872 39.64 14.8446 39.5611 15.445L39.5344 15.6483L41.1146 15.8559ZM46.5362 14.2456L46.3799 16.1103L46.1824 16.0844C46.0184 15.5034 45.8218 15.0954 45.5926 14.8604C45.3673 14.6259 45.1288 14.4922 44.8771 14.4591C44.7183 14.4382 44.5756 14.4746 44.449 14.5683C44.323 14.6581 44.2508 14.7728 44.2325 14.9122C44.2188 15.0168 44.2443 15.1225 44.309 15.2295C44.4121 15.4046 44.7228 15.7232 45.2413 16.1853C45.7602 16.6435 46.091 17.0199 46.2335 17.3144C46.3804 17.6055 46.432 17.9177 46.3883 18.2507C46.3486 18.5528 46.2341 18.8392 46.0449 19.1098C45.8557 19.3804 45.6134 19.5752 45.3181 19.6939C45.0228 19.8127 44.7086 19.8503 44.3755 19.8065C44.116 19.7724 43.7801 19.6455 43.3676 19.4259C43.2571 19.368 43.1805 19.3363 43.1379 19.3307C43.01 19.3139 42.8908 19.3967 42.7802 19.5792L42.5885 19.554L42.752 17.5898L42.9495 17.6158C43.0566 18.1499 43.2444 18.5646 43.5129 18.8599C43.7853 19.1557 44.057 19.3214 44.3282 19.357C44.5141 19.3815 44.6725 19.3452 44.8034 19.2481C44.9388 19.1477 45.0171 19.0161 45.0385 18.8535C45.0629 18.6676 45.0259 18.4992 44.9275 18.3484C44.8292 18.1976 44.5966 17.9582 44.23 17.6303C43.6913 17.1419 43.3491 16.7779 43.2033 16.5381C42.9895 16.1869 42.9077 15.8196 42.9581 15.4362C43.013 15.0179 43.2059 14.6591 43.5368 14.3598C43.872 14.0572 44.3127 13.9417 44.8588 14.0135C45.1531 14.0521 45.4284 14.1612 45.6846 14.3406C45.7815 14.4124 45.8629 14.4527 45.9287 14.4613C45.9984 14.4705 46.0564 14.4643 46.1025 14.4428C46.1492 14.4174 46.2279 14.343 46.3387 14.2197L46.5362 14.2456ZM49.682 19.5226C48.9429 20.0204 48.3099 20.2347 47.7832 20.1655C47.4734 20.1248 47.2291 19.9903 47.0502 19.7619C46.8719 19.5297 46.8029 19.2606 46.8431 18.9546C46.8975 18.5402 47.1245 18.1918 47.5241 17.9094C47.9242 17.6232 48.7587 17.2837 50.0277 16.8909L50.0995 16.3449C50.1534 15.9343 50.164 15.6737 50.1312 15.563C50.1029 15.449 50.0318 15.3451 49.9181 15.2514C49.8048 15.1538 49.6707 15.0948 49.5158 15.0744C49.2641 15.0413 49.0495 15.0703 48.8721 15.1612C48.7622 15.2177 48.7012 15.2924 48.689 15.3854C48.6783 15.4667 48.7193 15.5745 48.812 15.7088C48.9372 15.8947 48.9897 16.0651 48.9694 16.22C48.9444 16.4098 48.8514 16.5631 48.6903 16.6798C48.5336 16.7931 48.341 16.8348 48.1125 16.8048C47.8685 16.7727 47.6729 16.6722 47.5257 16.5031C47.3823 16.3346 47.3236 16.1516 47.3496 15.954C47.3862 15.6752 47.5315 15.4244 47.7853 15.2017C48.0396 14.975 48.3732 14.8199 48.7861 14.7362C49.1989 14.6526 49.6184 14.6388 50.0444 14.6947C50.5595 14.7624 50.9517 14.9262 51.2209 15.1861C51.4945 15.4427 51.659 15.7047 51.7145 15.972C51.7474 16.1418 51.7254 16.5191 51.6485 17.1039L51.3715 19.2127C51.3389 19.4606 51.328 19.6187 51.3387 19.6871C51.3499 19.7516 51.3729 19.8019 51.4075 19.838C51.4422 19.8741 51.4847 19.8954 51.5351 19.902C51.6358 19.9152 51.7478 19.8571 51.8712 19.7275L52.0272 19.8898C51.7959 20.151 51.567 20.3337 51.3406 20.4379C51.1185 20.5387 50.8758 20.5718 50.6124 20.5372C50.3026 20.4965 50.0699 20.3931 49.9145 20.2269C49.7595 20.0568 49.682 19.8221 49.682 19.5226ZM49.7377 19.0985L49.9766 17.2802C49.4718 17.4936 49.0846 17.7421 48.8149 18.0258C48.6363 18.2151 48.5331 18.4163 48.5051 18.6293C48.4817 18.8075 48.525 18.9727 48.635 19.1251C48.7181 19.2423 48.8468 19.3124 49.021 19.3353C49.2147 19.3608 49.4536 19.2818 49.7377 19.0985ZM55.0343 15.5158L54.942 16.2187C55.2605 15.9532 55.5565 15.7695 55.8299 15.6676C56.1039 15.5617 56.388 15.5281 56.6824 15.5668C57.0348 15.6131 57.3142 15.7503 57.5207 15.9783C57.7276 16.2025 57.8507 16.4649 57.89 16.7656C57.923 16.9945 57.8982 17.4226 57.8158 18.0501L57.538 20.1647C57.483 20.583 57.4855 20.8492 57.5453 20.9635C57.6096 21.0743 57.76 21.1591 57.9965 21.2178L57.9691 21.4269L55.2212 21.0659L55.2487 20.8568C55.4575 20.8566 55.6159 20.7907 55.7238 20.6591C55.7985 20.5705 55.861 20.3344 55.9114 19.951L56.2289 17.5343C56.2874 17.0889 56.3068 16.8058 56.2872 16.685C56.2676 16.5642 56.2193 16.4673 56.1423 16.3941C56.0696 16.3176 55.9829 16.2727 55.8822 16.2595C55.5491 16.2157 55.208 16.4132 54.8588 16.8519L54.4764 19.7625C54.423 20.1691 54.4259 20.4315 54.4853 20.5496C54.5485 20.6682 54.681 20.7546 54.8827 20.8087L54.8552 21.0178L52.1073 20.6568L52.1348 20.4477C52.3664 20.4545 52.5387 20.4022 52.6518 20.291C52.7288 20.2145 52.7948 19.967 52.8498 19.5488L53.2528 16.4814C53.3067 16.0708 53.3015 15.8101 53.2373 15.6993C53.177 15.5889 53.0288 15.5024 52.7927 15.4399L52.8209 15.225L55.0343 15.5158ZM61.4279 14.3346L61.1669 16.3214L62.4566 16.4909L62.381 17.066L61.0913 16.8966L60.6509 20.2486C60.6097 20.5623 60.5966 20.7674 60.6115 20.864C60.6307 20.9571 60.6734 21.0376 60.7393 21.1053C60.8058 21.1692 60.87 21.2052 60.932 21.2134C61.1837 21.2464 61.4471 21.086 61.7221 20.7321L61.8796 20.8828C61.4682 21.5852 60.91 21.8901 60.2051 21.7975C59.8605 21.7522 59.5805 21.6189 59.3653 21.3976C59.1545 21.1729 59.0317 20.9381 58.9969 20.6932C58.9755 20.5564 59.0029 20.1976 59.0792 19.6166L59.4647 16.6829L58.7559 16.5898L58.7826 16.3864C59.3159 16.1058 59.7779 15.7982 60.1686 15.4634C60.5631 15.1291 60.919 14.7445 61.2362 14.3094L61.4279 14.3346ZM66.8171 19.6286L63.8369 19.237C63.7771 19.962 63.894 20.5565 64.1876 21.0206C64.4126 21.3771 64.713 21.5801 65.0886 21.6295C65.321 21.66 65.5405 21.6238 65.7471 21.5209C65.9541 21.4142 66.1883 21.2066 66.4494 20.8981L66.6301 21.0519C66.2569 21.6135 65.8756 21.9968 65.4862 22.2017C65.0974 22.4028 64.6686 22.4725 64.2 22.411C63.3944 22.3051 62.8251 21.9152 62.4921 21.241C62.2247 20.6977 62.1395 20.0561 62.2367 19.3164C62.3558 18.4101 62.6944 17.7218 63.2526 17.2514C63.8152 16.7777 64.4257 16.5841 65.0841 16.6706C65.6341 16.7429 66.0807 17.032 66.424 17.5381C66.7716 18.0408 66.9027 18.7376 66.8171 19.6286ZM65.4391 19.0516C65.5211 18.428 65.5424 17.9955 65.5032 17.754C65.4679 17.5129 65.3865 17.323 65.259 17.1841C65.1868 17.1037 65.0829 17.0546 64.9474 17.0368C64.746 17.0103 64.5684 17.0874 64.4147 17.2682C64.1409 17.5828 63.9645 18.0403 63.8857 18.6407L63.859 18.844L65.4391 19.0516Z" fill="white"/>
<path d="M42.3923 34.9765L43.0033 38.7298C43.0623 39.0922 43.1379 39.3134 43.2301 39.3934C43.3767 39.5159 43.6148 39.5445 43.9445 39.4789L43.9784 39.6871L40.7918 40.2059L40.758 39.9977C41.0002 39.9543 41.1674 39.8993 41.2595 39.8329C41.3548 39.762 41.4142 39.6771 41.4377 39.5783C41.4612 39.4795 41.4491 39.2836 41.4014 38.9906L40.7904 35.2372L40.0038 35.3653L39.9116 34.7985L40.6981 34.6705L40.6331 34.2714L40.5831 34.0006C40.4927 33.4454 40.6198 32.9498 40.9644 32.5137C41.3128 32.0771 41.834 31.8023 42.528 31.6893C43.0022 31.6121 43.3675 31.6436 43.6239 31.784C43.8841 31.9237 44.0318 32.1015 44.0669 32.3174C44.0951 32.4909 44.0483 32.6528 43.9264 32.8033C43.8044 32.9538 43.6259 33.0481 43.3907 33.0864C43.1902 33.119 43.0217 33.093 42.8852 33.0084C42.7526 32.9231 42.676 32.8169 42.6553 32.6897C42.6496 32.655 42.6496 32.5817 42.6551 32.47C42.6599 32.402 42.6575 32.339 42.6481 32.2812C42.6349 32.2002 42.6021 32.1442 42.5495 32.1132C42.4784 32.0654 42.3985 32.0487 42.3099 32.0632C42.1981 32.0814 42.1111 32.143 42.0491 32.2481C41.9909 32.3526 41.9784 32.507 42.0117 32.7113L42.188 33.7215L42.3001 34.4097L43.0981 34.2798L43.1904 34.8465L42.3923 34.9765ZM48.671 33.3726L49.3601 37.6059C49.4273 38.0184 49.5079 38.2705 49.6019 38.362C49.6954 38.4497 49.8619 38.4879 50.1014 38.4766L50.1353 38.6848L47.9319 39.0435L47.8142 38.3206C47.6061 38.6711 47.3845 38.9387 47.1494 39.1234C46.9137 39.3043 46.6358 39.4207 46.3158 39.4728C46.0113 39.5224 45.7244 39.4741 45.4552 39.328C45.1893 39.1773 44.9954 38.9833 44.8737 38.7459C44.7519 38.5085 44.6402 38.0774 44.5385 37.4529L44.1892 35.3073C44.1227 34.8986 44.0427 34.6504 43.9493 34.5627C43.8597 34.4744 43.6929 34.4343 43.4488 34.4423L43.414 34.2284L45.6174 33.8697L46.219 37.5652C46.2818 37.9507 46.3396 38.1966 46.3925 38.3027C46.4493 38.4083 46.5209 38.4837 46.6074 38.5289C46.6978 38.5736 46.795 38.5874 46.8991 38.5705C47.0379 38.5479 47.1573 38.4909 47.2572 38.3994C47.3951 38.2741 47.5472 38.0415 47.7135 37.7018L47.2428 34.8102C47.1762 34.4015 47.0963 34.1533 47.0028 34.0656C46.9133 33.9773 46.7464 33.9372 46.5024 33.9452L46.4675 33.7313L48.671 33.3726ZM51.8611 32.8532L52.0607 34.0793C52.3282 33.4619 52.5822 33.0406 52.8226 32.8155C53.0623 32.5865 53.3075 32.4516 53.5581 32.4108C53.774 32.3756 53.9566 32.4152 54.1058 32.5294C54.2582 32.6391 54.3542 32.8154 54.3937 33.0583C54.4358 33.3167 54.4048 33.5275 54.3008 33.6909C54.2006 33.8536 54.0619 33.9494 53.8845 33.9783C53.6802 34.0116 53.4922 33.9749 53.3205 33.8683C53.1488 33.7617 53.0482 33.7028 53.0187 33.6918C52.9763 33.675 52.9301 33.6706 52.88 33.6788C52.7682 33.697 52.6691 33.7566 52.5826 33.8578C52.4459 34.0146 52.3568 34.221 52.3154 34.4771C52.2529 34.8712 52.2584 35.2938 52.3318 35.7449L52.5342 36.9883L52.5927 37.3112C52.6285 37.5309 52.6649 37.6695 52.7019 37.7268C52.7651 37.8233 52.8452 37.8895 52.942 37.9252C53.0421 37.9564 53.201 37.9602 53.4188 37.9366L53.4527 38.1448L50.5321 38.6202L50.4982 38.412C50.7303 38.3545 50.878 38.2651 50.9414 38.144C51.008 38.0184 51.003 37.7204 50.9265 37.25L50.4397 34.2601C50.3895 33.9516 50.3421 33.7575 50.2974 33.6777C50.2413 33.576 50.1725 33.5061 50.0911 33.4679C50.0097 33.4297 49.8749 33.416 49.6867 33.4269L49.6519 33.2129L51.8611 32.8532ZM55.3303 29.5993C55.5809 29.5585 55.8074 29.6126 56.0097 29.7617C56.2115 29.907 56.3324 30.103 56.3726 30.3497C56.4128 30.5965 56.3583 30.821 56.2092 31.0234C56.0639 31.2251 55.8679 31.3461 55.6212 31.3863C55.3744 31.4264 55.1502 31.3739 54.9484 31.2286C54.7467 31.0834 54.6257 30.8874 54.5856 30.6406C54.5454 30.3939 54.5979 30.1696 54.7432 29.9679C54.8878 29.7623 55.0835 29.6394 55.3303 29.5993ZM56.5664 32.0873L57.264 36.3726C57.3262 36.7543 57.4104 36.9919 57.5166 37.0855C57.6222 37.1751 57.8055 37.2066 58.0663 37.18L58.1002 37.3882L55.1796 37.8636L55.1457 37.6554C55.3835 37.6088 55.5496 37.5106 55.6439 37.3606C55.7066 37.2594 55.7068 37.0179 55.6447 36.6363L55.1307 33.4786C55.0685 33.0969 54.9847 32.8612 54.879 32.7716C54.7728 32.678 54.5912 32.6443 54.3342 32.6703L54.2994 32.4563L56.5664 32.0873ZM59.8516 31.3862C60.322 31.3097 60.7793 31.3599 61.2237 31.5369C61.6681 31.7139 62.0308 32.009 62.3118 32.4224C62.5966 32.8351 62.7824 33.3075 62.869 33.8395C62.9939 34.6068 62.9037 35.2804 62.5984 35.8604C62.2297 36.5616 61.6309 36.9797 60.8019 37.1146C59.9884 37.247 59.3155 37.0637 58.783 36.5647C58.2506 36.0656 57.9232 35.4402 57.8008 34.6883C57.6747 33.9134 57.7885 33.2023 58.1422 32.555C58.4991 31.9032 59.0689 31.5136 59.8516 31.3862ZM59.9416 31.7931C59.7449 31.8251 59.5875 31.9279 59.4694 32.1015C59.3544 32.2706 59.3096 32.5787 59.3349 33.0257C59.3634 33.4683 59.441 34.079 59.5678 34.8578C59.635 35.2703 59.7247 35.6515 59.8371 36.0013C59.9241 36.2681 60.0485 36.4615 60.2106 36.5816C60.3726 36.7017 60.5423 36.7473 60.7196 36.7184C60.8931 36.6901 61.0299 36.6184 61.1298 36.5032C61.2589 36.3476 61.3293 36.1482 61.3411 35.9048C61.3586 35.526 61.2767 34.7795 61.0953 33.6652C60.9886 33.0098 60.8788 32.5666 60.766 32.3356C60.6526 32.1008 60.5155 31.9391 60.3546 31.8505C60.2412 31.7859 60.1035 31.7667 59.9416 31.7931ZM66.2186 30.3616L66.6057 32.1923L66.409 32.2243C66.0847 31.7152 65.779 31.381 65.4919 31.222C65.2087 31.0623 64.9418 31.0028 64.6911 31.0436C64.5331 31.0694 64.4069 31.1453 64.3127 31.2715C64.2178 31.3938 64.1817 31.5243 64.2043 31.6631C64.2212 31.7672 64.2761 31.8612 64.3689 31.945C64.518 32.083 64.9073 32.2986 65.5368 32.5919C66.1657 32.8814 66.5908 33.1466 66.8121 33.3876C67.0366 33.6241 67.1759 33.9082 67.2299 34.2397C67.2788 34.5405 67.2517 34.8477 67.1484 35.1613C67.0451 35.4749 66.8691 35.7311 66.6205 35.9299C66.3718 36.1287 66.0817 36.2551 65.7502 36.3091C65.4918 36.3511 65.1336 36.3263 64.6754 36.2347C64.5528 36.2111 64.4704 36.2028 64.4279 36.2097C64.3007 36.2304 64.2104 36.344 64.1569 36.5506L63.9661 36.5817L63.5572 34.6536L63.7539 34.6216C64.0102 35.1023 64.3095 35.4454 64.6516 35.6509C64.9976 35.8557 65.3056 35.9362 65.5755 35.8923C65.7605 35.8621 65.9018 35.7818 65.9992 35.6511C66.0999 35.516 66.1371 35.3675 66.1107 35.2055C66.0806 35.0205 65.9967 34.8699 65.8591 34.7538C65.7215 34.6377 65.4299 34.4754 64.9843 34.2669C64.3279 33.9543 63.8954 33.7041 63.6867 33.5164C63.3808 33.2417 63.1968 32.9135 63.1346 32.5318C63.0669 32.1154 63.1483 31.7163 63.379 31.3344C63.613 30.948 64.0017 30.7106 64.5454 30.6221C64.8384 30.5744 65.1334 30.5996 65.4303 30.6977C65.5438 30.7386 65.6334 30.7537 65.6989 30.743C65.7683 30.7317 65.822 30.7091 65.86 30.6752C65.8974 30.6375 65.9514 30.5436 66.022 30.3936L66.2186 30.3616ZM69.5398 29.8091C70.0102 29.7325 70.4676 29.7827 70.912 29.9597C71.3563 30.1367 71.719 30.4319 72 30.8452C72.2849 31.2579 72.4706 31.7303 72.5572 32.2624C72.6821 33.0296 72.5919 33.7032 72.2866 34.2833C71.9179 34.9844 71.3191 35.4025 70.4902 35.5374C69.6767 35.6699 69.0037 35.4866 68.4713 34.9875C67.9389 34.4884 67.6115 33.863 67.4891 33.1112C67.3629 32.3362 67.4767 31.6251 67.8304 30.9778C68.1874 30.3261 68.7572 29.9365 69.5398 29.8091ZM69.6298 30.2159C69.4332 30.2479 69.2758 30.3507 69.1576 30.5243C69.0427 30.6934 68.9978 31.0015 69.0231 31.4485C69.0516 31.8911 69.1293 32.5018 69.2561 33.2806C69.3232 33.6932 69.413 34.0743 69.5253 34.4241C69.6123 34.6909 69.7368 34.8844 69.8988 35.0044C70.0608 35.1245 70.2305 35.1701 70.4079 35.1412C70.5814 35.113 70.7181 35.0412 70.8181 34.926C70.9471 34.7705 71.0175 34.571 71.0294 34.3277C71.0469 33.9488 70.9649 33.2023 70.7835 32.0881C70.6768 31.4326 70.5671 30.9894 70.4543 30.7585C70.3408 30.5236 70.2037 30.3619 70.0429 30.2733C69.9294 30.2087 69.7918 30.1895 69.6298 30.2159Z" fill="white"/>
</svg>
