<svg width="92" height="137" viewBox="0 0 92 137" fill="none" xmlns="http://www.w3.org/2000/svg">
<path d="M56.096 47.7973C55.4987 45.5359 55.008 43.2959 54.624 41.0773C54.24 38.8586 54.048 36.5973 54.048 34.2933C54.048 32.2879 54.176 30.4106 54.432 28.6613C54.7307 26.8693 55.136 25.2266 55.648 23.7333C56.2027 22.0266 56.928 20.4266 57.824 18.9333C58.72 17.3973 59.6587 16.1386 60.64 15.1573C61.664 14.1759 62.56 13.6853 63.328 13.6853C64.352 13.6853 65.76 15.4986 67.552 19.1253C68.448 20.9599 69.1093 22.9439 69.536 25.0773C69.9627 27.2106 70.176 29.4933 70.176 31.9253C70.176 34.9546 69.7707 37.9839 68.96 41.0133C68.1493 43.9999 66.9547 46.8159 65.376 49.4613C63.84 52.1066 61.984 54.4319 59.808 56.4373L62.048 67.1893C62.688 67.1039 63.2213 67.0399 63.648 66.9973C64.0747 66.9546 64.3947 66.9333 64.608 66.9333C67.2107 66.9333 69.536 67.6799 71.584 69.1733C73.632 70.6239 75.2533 72.5439 76.448 74.9333C77.6853 77.3226 78.304 79.9466 78.304 82.8053C78.304 86.0906 77.4507 89.0559 75.744 91.7013C74.08 94.3039 71.5627 96.2239 68.192 97.4613C68.4053 98.1866 69.024 101.216 70.048 106.549C70.304 107.829 70.496 108.832 70.624 109.557C70.752 110.325 70.8373 110.987 70.88 111.541C70.9227 112.096 70.944 112.736 70.944 113.461C70.944 115.595 70.4107 117.493 69.344 119.157C68.32 120.864 66.912 122.187 65.12 123.125C63.3707 124.064 61.408 124.533 59.232 124.533C57.0133 124.533 55.0507 124.107 53.344 123.253C51.6373 122.443 50.2933 121.291 49.312 119.797C48.3307 118.347 47.84 116.661 47.84 114.741C47.84 112.693 48.3947 110.987 49.504 109.621C50.656 108.256 52.2773 107.573 54.368 107.573C56.16 107.573 57.6107 108.213 58.72 109.493C59.872 110.816 60.448 112.373 60.448 114.165C60.448 115.701 59.9147 117.045 58.848 118.197C57.7813 119.349 56.3947 119.925 54.688 119.925H54.048C55.1573 121.589 56.9067 122.421 59.296 122.421C62.24 122.421 64.544 121.461 66.208 119.541C67.872 117.621 68.704 115.168 68.704 112.181C68.704 111.456 68.6187 110.475 68.448 109.237C68.2773 108.043 67.9787 106.592 67.552 104.885C67.1253 103.179 66.784 101.771 66.528 100.661C66.3147 99.5519 66.1653 98.7626 66.08 98.2933C64.6293 98.7199 62.9227 98.9333 60.96 98.9333C57.2907 98.9333 53.7067 97.8666 50.208 95.7333C46.7947 93.5999 44.1067 90.7839 42.144 87.2853C40.1813 83.7866 39.2 80.0106 39.2 75.9573C39.2 72.1173 40.0747 68.5119 41.824 65.1413C43.5733 61.7706 45.728 58.6773 48.288 55.8613C50.8907 53.0453 53.4933 50.3573 56.096 47.7973ZM57.824 46.1973C58.8053 45.6853 59.8507 44.7466 60.96 43.3813C62.0693 41.9733 63.136 40.3733 64.16 38.5813C65.184 36.7893 66.016 34.9973 66.656 33.2053C67.296 31.3706 67.616 29.7279 67.616 28.2773C67.616 26.7413 67.3813 25.5253 66.912 24.6293C66.4427 23.7333 65.632 23.2853 64.48 23.2853C63.456 23.2853 62.4533 23.7546 61.472 24.6933C60.5333 25.6319 59.68 26.8906 58.912 28.4693C58.1867 30.0053 57.6107 31.7333 57.184 33.6533C56.7573 35.5733 56.544 37.5359 56.544 39.5413C56.544 40.9066 56.672 42.1439 56.928 43.2533C57.2267 44.3626 57.5253 45.3439 57.824 46.1973ZM61.472 74.8053C60.32 75.0613 59.232 75.6159 58.208 76.4693C57.184 77.2799 56.352 78.2826 55.712 79.4773C55.1147 80.6293 54.816 81.8666 54.816 83.1893C54.816 84.2559 55.0933 85.3653 55.648 86.5173C56.2027 87.6266 56.8853 88.5226 57.696 89.2053C58.2507 89.7173 58.8053 90.1013 59.36 90.3573C60 90.6559 60.32 90.9333 60.32 91.1893C60.32 91.3173 60.1067 91.4453 59.68 91.5733C58.0587 91.1893 56.5867 90.4639 55.264 89.3973C53.984 88.3306 52.96 87.0506 52.192 85.5573C51.4667 84.0213 51.104 82.3999 51.104 80.6933C51.104 78.8586 51.4667 77.0879 52.192 75.3813C52.96 73.6746 54.0053 72.1386 55.328 70.7733C56.6933 69.4079 58.2293 68.3839 59.936 67.7013L58.08 58.0373C53.1307 62.0479 49.4827 65.9946 47.136 69.8773C44.832 73.7173 43.68 77.5359 43.68 81.3333C43.68 84.1066 44.4053 86.6879 45.856 89.0773C47.3067 91.4666 49.2907 93.4079 51.808 94.9013C54.3253 96.3519 57.1627 97.0773 60.32 97.0773C61.1733 97.0773 62.0267 96.9919 62.88 96.8213C63.776 96.6506 64.7147 96.4373 65.696 96.1813L61.472 74.8053ZM67.68 95.5413C71.8613 93.7493 73.952 90.0799 73.952 84.5333C73.952 82.6986 73.4827 81.0346 72.544 79.5413C71.6053 78.0053 70.3467 76.7893 68.768 75.8933C67.1893 74.9973 65.4187 74.5493 63.456 74.5493L67.68 95.5413Z" fill="white"/>
</svg>
