<svg width="70" height="70" viewBox="0 0 70 70" fill="none" xmlns="http://www.w3.org/2000/svg">
<path d="M28.104 38.528V33.952L26.6 34.336V31.136L28.104 30.72V24.448H29.096V30.464L31.24 29.952V23.712H32.232V29.696L33.8 29.344V32.512L32.232 32.96V37.536L33.8 37.152V40.448L32.232 40.832V46.848H31.24V41.088L29.096 41.664V47.904H28.104V41.888L26.6 42.272V38.976L28.104 38.528ZM31.24 37.76V33.152L29.096 33.696V38.272L31.24 37.76ZM36.5762 20.32H37.5682V32.8C38.3576 32.0107 39.2536 31.616 40.2562 31.616C40.9389 31.616 41.5576 31.8507 42.1122 32.32C42.6669 32.768 42.9443 33.4293 42.9443 34.304C42.9443 34.9867 42.7416 35.616 42.3362 36.192C41.9309 36.768 41.3869 37.344 40.7042 37.92L38.4962 39.808C38.0909 40.1493 37.7282 40.48 37.4082 40.8C37.0882 41.1413 36.8109 41.4613 36.5762 41.76V20.32ZM37.5682 39.616C38.1229 39.0187 38.5922 38.4747 38.9762 37.984C39.3602 37.472 39.6589 37.024 39.8723 36.64C40.1069 36.2347 40.2776 35.8613 40.3843 35.52C40.5123 35.1787 40.5763 34.8587 40.5763 34.56C40.5763 33.9627 40.4376 33.536 40.1602 33.28C39.8829 33.0027 39.5842 32.864 39.2642 32.864C38.9229 32.864 38.5816 32.992 38.2402 33.248C37.9202 33.4827 37.6962 33.8133 37.5682 34.24V39.616Z" fill="white"/>
</svg>
