<svg width="78" height="97" viewBox="0 0 78 97" fill="none" xmlns="http://www.w3.org/2000/svg">
<path d="M8.63452 32.7866L8.47721 31.4856L62.6878 24.9309L62.8451 26.232L8.63452 32.7866ZM10.2338 46.014L10.0765 44.713L64.2871 38.1583L64.4444 39.4594L10.2338 46.014ZM11.8332 59.2414L11.6759 57.9403L65.8864 51.3857L66.0438 52.6868L11.8332 59.2414ZM13.4325 72.4688L13.2752 71.1677L67.4858 64.6131L67.6431 65.9141L13.4325 72.4688ZM15.0318 85.6962L14.8745 84.3951L69.0851 77.8405L69.2424 79.1415L15.0318 85.6962Z" fill="white"/>
<path d="M24.351 34.7709L23.4137 27.0187L20.9444 27.9773L20.289 22.5563L22.7516 21.5435L21.4669 10.9182L23.1475 10.715L24.3797 20.9066L27.907 19.6001L26.6288 9.02901L28.3093 8.82582L29.5351 18.9632L32.1193 18.0457L32.7682 23.4126L30.2036 24.4927L31.1409 32.2448L33.7186 31.2731L34.3937 36.8568L31.8161 37.8285L33.0483 48.0201L31.3678 48.2233L30.188 38.4654L26.6738 39.8803L27.952 50.4514L26.2715 50.6546L25.0392 40.463L22.57 41.4216L21.8948 35.8379L24.351 34.7709ZM29.5063 32.8275L28.5624 25.0211L25.0417 26.3819L25.9791 34.134L29.5063 32.8275Z" fill="white"/>
<path d="M44.4944 52.1022L43.5571 44.35L41.0878 45.3086L40.4324 39.8876L42.895 38.8748L41.6103 28.2495L43.2909 28.0463L44.5231 38.2379L48.0504 36.9314L46.7722 26.3603L48.4527 26.1571L49.6785 36.2945L52.2627 35.377L52.9116 40.7438L50.347 41.824L51.2843 49.5761L53.862 48.6044L54.5371 54.1881L51.9595 55.1598L53.1917 65.3514L51.5112 65.5546L50.3314 55.7967L46.8173 57.2116L48.0954 67.7827L46.4149 67.9859L45.1826 57.7943L42.7134 58.7529L42.0382 53.1692L44.4944 52.1022ZM49.6497 50.1588L48.7058 42.3524L45.1852 43.7132L46.1225 51.4653L49.6497 50.1588Z" fill="white"/>
</svg>
