<svg width="70" height="70" viewBox="0 0 70 70" fill="none" xmlns="http://www.w3.org/2000/svg">
<path d="M18.2803 35.8027V38.373C18.2803 38.8743 18.3099 39.1911 18.3691 39.3232C18.4329 39.4508 18.5423 39.5534 18.6973 39.6309C18.8568 39.7083 19.1462 39.7471 19.5654 39.7471V40H14.8555V39.7471C15.2839 39.7471 15.5732 39.7083 15.7236 39.6309C15.8786 39.5488 15.9857 39.444 16.0449 39.3164C16.1087 39.1888 16.1406 38.8743 16.1406 38.373V32.3574C16.1406 31.8561 16.1087 31.5417 16.0449 31.4141C15.9857 31.2819 15.8786 31.1771 15.7236 31.0996C15.5687 31.0221 15.2793 30.9834 14.8555 30.9834V30.7305H18.8955C20.2262 30.7305 21.181 30.9674 21.7598 31.4414C22.3385 31.9154 22.6279 32.5078 22.6279 33.2188C22.6279 33.8203 22.4411 34.3353 22.0674 34.7637C21.6937 35.1921 21.1787 35.4837 20.5225 35.6387C20.0804 35.748 19.333 35.8027 18.2803 35.8027ZM18.2803 31.2637V35.2695C18.4307 35.2786 18.5446 35.2832 18.6221 35.2832C19.1781 35.2832 19.6064 35.1191 19.9072 34.791C20.208 34.4583 20.3584 33.9456 20.3584 33.2529C20.3584 32.5648 20.208 32.0612 19.9072 31.7422C19.6064 31.4232 19.1576 31.2637 18.5605 31.2637H18.2803ZM28.5143 36.5752H25.0075C25.0485 37.4229 25.2741 38.0928 25.6843 38.585C25.9987 38.9632 26.377 39.1523 26.819 39.1523C27.0925 39.1523 27.3408 39.0771 27.5641 38.9268C27.7874 38.7718 28.0267 38.4961 28.2819 38.0996L28.5143 38.25C28.168 38.9564 27.7852 39.4577 27.3659 39.7539C26.9466 40.0456 26.4613 40.1914 25.9098 40.1914C24.9619 40.1914 24.2442 39.8268 23.7565 39.0977C23.3646 38.5098 23.1686 37.7806 23.1686 36.9102C23.1686 35.8438 23.4557 34.9961 24.03 34.3672C24.6087 33.7337 25.2855 33.417 26.0602 33.417C26.7074 33.417 27.2679 33.6836 27.7419 34.2168C28.2204 34.7454 28.4779 35.5316 28.5143 36.5752ZM26.8327 36.1172C26.8327 35.3835 26.7917 34.8799 26.7096 34.6064C26.6322 34.333 26.5091 34.1257 26.3405 33.9844C26.2448 33.9023 26.1172 33.8613 25.9577 33.8613C25.7207 33.8613 25.527 33.9775 25.3766 34.21C25.1078 34.6156 24.9733 35.1715 24.9733 35.8779V36.1172H26.8327ZM31.5433 33.6084V35.0576C31.9671 34.3968 32.3386 33.9593 32.6576 33.7451C32.9766 33.5264 33.2842 33.417 33.5804 33.417C33.8356 33.417 34.0384 33.4967 34.1888 33.6562C34.3438 33.8112 34.4213 34.0322 34.4213 34.3193C34.4213 34.6247 34.3461 34.8617 34.1957 35.0303C34.0498 35.1989 33.8721 35.2832 33.6625 35.2832C33.4209 35.2832 33.2113 35.2057 33.0336 35.0508C32.8558 34.8958 32.751 34.8092 32.7191 34.791C32.6735 34.7637 32.6211 34.75 32.5619 34.75C32.4297 34.75 32.3044 34.8001 32.1859 34.9004C31.999 35.0553 31.8578 35.2764 31.7621 35.5635C31.6162 36.0055 31.5433 36.4932 31.5433 37.0264V38.4961L31.5502 38.8789C31.5502 39.1387 31.5661 39.305 31.598 39.3779C31.6527 39.501 31.7324 39.5921 31.8373 39.6514C31.9466 39.7061 32.1289 39.7402 32.3841 39.7539V40H28.932V39.7539C29.21 39.7311 29.3968 39.6559 29.4925 39.5283C29.5928 39.3962 29.6429 39.0521 29.6429 38.4961V34.9619C29.6429 34.5973 29.6247 34.3649 29.5882 34.2646C29.5427 34.137 29.4766 34.0436 29.39 33.9844C29.3034 33.9251 29.1507 33.8841 28.932 33.8613V33.6084H31.5433ZM37.4844 34.2783V38.7148C37.4844 39.1432 37.53 39.4121 37.6211 39.5215C37.767 39.6901 38.0358 39.7676 38.4278 39.7539V40H34.6612V39.7539C34.9483 39.7493 35.1511 39.7174 35.2696 39.6582C35.3926 39.5944 35.4769 39.5078 35.5225 39.3984C35.5681 39.2891 35.5909 39.0612 35.5909 38.7148V34.2783H34.6612V33.6084H35.5909V33.1367L35.584 32.8154C35.584 32.1592 35.8233 31.6123 36.3018 31.1748C36.7849 30.7373 37.4366 30.5186 38.2569 30.5186C38.8174 30.5186 39.2321 30.6234 39.501 30.833C39.7745 31.0426 39.9112 31.2751 39.9112 31.5303C39.9112 31.7354 39.8269 31.9131 39.6582 32.0635C39.4896 32.2139 39.2663 32.2891 38.9883 32.2891C38.7513 32.2891 38.5622 32.2275 38.4209 32.1045C38.2842 31.9814 38.2159 31.8447 38.2159 31.6943C38.2159 31.6533 38.2295 31.569 38.2569 31.4414C38.2751 31.3639 38.2842 31.291 38.2842 31.2227C38.2842 31.127 38.2569 31.0563 38.2022 31.0107C38.1293 30.9424 38.0404 30.9082 37.9356 30.9082C37.8034 30.9082 37.6918 30.9629 37.6006 31.0723C37.514 31.1816 37.4707 31.3571 37.4707 31.5986L37.4844 32.7949V33.6084H38.4278V34.2783H37.4844ZM44.3279 36.5752H40.821C40.862 37.4229 41.0876 38.0928 41.4978 38.585C41.8122 38.9632 42.1905 39.1523 42.6325 39.1523C42.906 39.1523 43.1543 39.0771 43.3777 38.9268C43.601 38.7718 43.8402 38.4961 44.0954 38.0996L44.3279 38.25C43.9815 38.9564 43.5987 39.4577 43.1794 39.7539C42.7601 40.0456 42.2748 40.1914 41.7234 40.1914C40.7754 40.1914 40.0577 39.8268 39.57 39.0977C39.1781 38.5098 38.9821 37.7806 38.9821 36.9102C38.9821 35.8438 39.2693 34.9961 39.8435 34.3672C40.4223 33.7337 41.099 33.417 41.8738 33.417C42.5209 33.417 43.0814 33.6836 43.5554 34.2168C44.0339 34.7454 44.2914 35.5316 44.3279 36.5752ZM42.6462 36.1172C42.6462 35.3835 42.6052 34.8799 42.5232 34.6064C42.4457 34.333 42.3226 34.1257 42.154 33.9844C42.0583 33.9023 41.9307 33.8613 41.7712 33.8613C41.5342 33.8613 41.3405 33.9775 41.1902 34.21C40.9213 34.6156 40.7868 35.1715 40.7868 35.8779V36.1172H42.6462ZM49.9203 38.3525L50.1322 38.5166C49.8314 39.0817 49.4555 39.5033 49.0043 39.7812C48.5577 40.0547 48.0814 40.1914 47.5756 40.1914C46.7234 40.1914 46.0421 39.8701 45.5316 39.2275C45.0212 38.585 44.766 37.8125 44.766 36.9102C44.766 36.0397 44.9984 35.2741 45.4633 34.6133C46.0238 33.8158 46.7963 33.417 47.7807 33.417C48.4415 33.417 48.9656 33.5833 49.3529 33.916C49.7449 34.2487 49.9408 34.6201 49.9408 35.0303C49.9408 35.29 49.8611 35.4974 49.7016 35.6523C49.5466 35.8073 49.3415 35.8848 49.0863 35.8848C48.8174 35.8848 48.5941 35.7959 48.4164 35.6182C48.2432 35.4404 48.1361 35.1237 48.0951 34.668C48.0678 34.3809 48.0017 34.1803 47.8969 34.0664C47.7921 33.9525 47.669 33.8955 47.5277 33.8955C47.309 33.8955 47.1221 34.0117 46.9672 34.2441C46.7302 34.5951 46.6117 35.1328 46.6117 35.8574C46.6117 36.459 46.7074 37.0355 46.8988 37.5869C47.0902 38.1338 47.3523 38.5417 47.685 38.8105C47.9356 39.0065 48.2318 39.1045 48.5736 39.1045C48.7969 39.1045 49.0089 39.0521 49.2094 38.9473C49.4099 38.8424 49.6469 38.6442 49.9203 38.3525ZM53.0313 31.2705V33.6084H54.5489V34.2852H53.0313V38.2295C53.0313 38.5986 53.0473 38.8379 53.0792 38.9473C53.1156 39.0521 53.1772 39.1387 53.2637 39.207C53.3503 39.2708 53.4301 39.3027 53.503 39.3027C53.7992 39.3027 54.0795 39.0771 54.3438 38.626L54.5489 38.7764C54.1798 39.6514 53.5805 40.0889 52.7511 40.0889C52.3455 40.0889 52.0014 39.9772 51.7188 39.7539C51.4408 39.526 51.2631 39.2731 51.1856 38.9951C51.1401 38.8402 51.1173 38.4209 51.1173 37.7373V34.2852H50.2833V34.0459C50.8575 33.6403 51.3451 33.2142 51.7462 32.7676C52.1518 32.321 52.505 31.8219 52.8057 31.2705H53.0313Z" fill="white"/>
</svg>
